<?xml version="1.0" encoding="utf-8" standalone="no"?>
<!DOCTYPE svg PUBLIC "-//W3C//DTD SVG 1.1//EN"
  "http://www.w3.org/Graphics/SVG/1.1/DTD/svg11.dtd">
<svg xmlns:xlink="http://www.w3.org/1999/xlink" width="520.11397pt" height="480.024219pt" viewBox="0 0 520.11397 480.024219" xmlns="http://www.w3.org/2000/svg" version="1.1">
 <metadata>
  <rdf:RDF xmlns:dc="http://purl.org/dc/elements/1.1/" xmlns:cc="http://creativecommons.org/ns#" xmlns:rdf="http://www.w3.org/1999/02/22-rdf-syntax-ns#">
   <cc:Work>
    <dc:type rdf:resource="http://purl.org/dc/dcmitype/StillImage"/>
    <dc:date>2026-05-05T23:55:06.740720</dc:date>
    <dc:format>image/svg+xml</dc:format>
    <dc:creator>
     <cc:Agent>
      <dc:title>Matplotlib v3.10.9, https://matplotlib.org/</dc:title>
     </cc:Agent>
    </dc:creator>
   </cc:Work>
  </rdf:RDF>
 </metadata>
 <defs>
  <style type="text/css">*{stroke-linejoin: round; stroke-linecap: butt}</style>
 </defs>
 <g id="figure_1">
  <g id="patch_1">
   <path d="M 0 480.024219 
L 520.11397 480.024219 
L 520.11397 0 
L 0 0 
z
" style="fill: #ffffff"/>
  </g>
  <g id="axes_1">
   <g id="patch_2">
    <path d="M 56.959063 444.032344 
L 419.817888 444.032344 
L 419.817888 38.117344 
L 56.959063 38.117344 
z
" style="fill: #fcfcfd"/>
   </g>
   <g id="matplotlib.axis_1">
    <g id="xtick_1">
     <g id="line2d_1">
      <path d="M 62.290711 444.032344 
L 62.290711 38.117344 
" clip-path="url(#p53cc302d90)" style="fill: none; stroke: #cccccc; stroke-opacity: 0.12; stroke-width: 0.8; stroke-linecap: round"/>
     </g>
     <g id="line2d_2"/>
     <g id="text_1">
      <!-- −0.05 -->
      <g style="fill: #262626" transform="translate(46.968054 455.130781) scale(0.1 -0.1)">
       <defs>
        <path id="DejaVuSans-2212" d="M 678 2272 
L 4684 2272 
L 4684 1741 
L 678 1741 
L 678 2272 
z
" transform="scale(0.015625)"/>
        <path id="DejaVuSans-30" d="M 2034 4250 
Q 1547 4250 1301 3770 
Q 1056 3291 1056 2328 
Q 1056 1369 1301 889 
Q 1547 409 2034 409 
Q 2525 409 2770 889 
Q 3016 1369 3016 2328 
Q 3016 3291 2770 3770 
Q 2525 4250 2034 4250 
z
M 2034 4750 
Q 2819 4750 3233 4129 
Q 3647 3509 3647 2328 
Q 3647 1150 3233 529 
Q 2819 -91 2034 -91 
Q 1250 -91 836 529 
Q 422 1150 422 2328 
Q 422 3509 836 4129 
Q 1250 4750 2034 4750 
z
" transform="scale(0.015625)"/>
        <path id="DejaVuSans-2e" d="M 684 794 
L 1344 794 
L 1344 0 
L 684 0 
L 684 794 
z
" transform="scale(0.015625)"/>
        <path id="DejaVuSans-35" d="M 691 4666 
L 3169 4666 
L 3169 4134 
L 1269 4134 
L 1269 2991 
Q 1406 3038 1543 3061 
Q 1681 3084 1819 3084 
Q 2600 3084 3056 2656 
Q 3513 2228 3513 1497 
Q 3513 744 3044 326 
Q 2575 -91 1722 -91 
Q 1428 -91 1123 -41 
Q 819 9 494 109 
L 494 744 
Q 775 591 1075 516 
Q 1375 441 1709 441 
Q 2250 441 2565 725 
Q 2881 1009 2881 1497 
Q 2881 1984 2565 2268 
Q 2250 2553 1709 2553 
Q 1456 2553 1204 2497 
Q 953 2441 691 2322 
L 691 4666 
z
" transform="scale(0.015625)"/>
       </defs>
       <use xlink:href="#DejaVuSans-2212"/>
       <use xlink:href="#DejaVuSans-30" transform="translate(83.789062 0)"/>
       <use xlink:href="#DejaVuSans-2e" transform="translate(147.412109 0)"/>
       <use xlink:href="#DejaVuSans-30" transform="translate(179.199219 0)"/>
       <use xlink:href="#DejaVuSans-35" transform="translate(242.822266 0)"/>
      </g>
     </g>
    </g>
    <g id="xtick_2">
     <g id="line2d_3">
      <path d="M 104.182148 444.032344 
L 104.182148 38.117344 
" clip-path="url(#p53cc302d90)" style="fill: none; stroke: #cccccc; stroke-opacity: 0.12; stroke-width: 0.8; stroke-linecap: round"/>
     </g>
     <g id="line2d_4"/>
     <g id="text_2">
      <!-- −0.04 -->
      <g style="fill: #262626" transform="translate(88.859492 455.130781) scale(0.1 -0.1)">
       <defs>
        <path id="DejaVuSans-34" d="M 2419 4116 
L 825 1625 
L 2419 1625 
L 2419 4116 
z
M 2253 4666 
L 3047 4666 
L 3047 1625 
L 3713 1625 
L 3713 1100 
L 3047 1100 
L 3047 0 
L 2419 0 
L 2419 1100 
L 313 1100 
L 313 1709 
L 2253 4666 
z
" transform="scale(0.015625)"/>
       </defs>
       <use xlink:href="#DejaVuSans-2212"/>
       <use xlink:href="#DejaVuSans-30" transform="translate(83.789062 0)"/>
       <use xlink:href="#DejaVuSans-2e" transform="translate(147.412109 0)"/>
       <use xlink:href="#DejaVuSans-30" transform="translate(179.199219 0)"/>
       <use xlink:href="#DejaVuSans-34" transform="translate(242.822266 0)"/>
      </g>
     </g>
    </g>
    <g id="xtick_3">
     <g id="line2d_5">
      <path d="M 146.073586 444.032344 
L 146.073586 38.117344 
" clip-path="url(#p53cc302d90)" style="fill: none; stroke: #cccccc; stroke-opacity: 0.12; stroke-width: 0.8; stroke-linecap: round"/>
     </g>
     <g id="line2d_6"/>
     <g id="text_3">
      <!-- −0.03 -->
      <g style="fill: #262626" transform="translate(130.750929 455.130781) scale(0.1 -0.1)">
       <defs>
        <path id="DejaVuSans-33" d="M 2597 2516 
Q 3050 2419 3304 2112 
Q 3559 1806 3559 1356 
Q 3559 666 3084 287 
Q 2609 -91 1734 -91 
Q 1441 -91 1130 -33 
Q 819 25 488 141 
L 488 750 
Q 750 597 1062 519 
Q 1375 441 1716 441 
Q 2309 441 2620 675 
Q 2931 909 2931 1356 
Q 2931 1769 2642 2001 
Q 2353 2234 1838 2234 
L 1294 2234 
L 1294 2753 
L 1863 2753 
Q 2328 2753 2575 2939 
Q 2822 3125 2822 3475 
Q 2822 3834 2567 4026 
Q 2313 4219 1838 4219 
Q 1578 4219 1281 4162 
Q 984 4106 628 3988 
L 628 4550 
Q 988 4650 1302 4700 
Q 1616 4750 1894 4750 
Q 2613 4750 3031 4423 
Q 3450 4097 3450 3541 
Q 3450 3153 3228 2886 
Q 3006 2619 2597 2516 
z
" transform="scale(0.015625)"/>
       </defs>
       <use xlink:href="#DejaVuSans-2212"/>
       <use xlink:href="#DejaVuSans-30" transform="translate(83.789062 0)"/>
       <use xlink:href="#DejaVuSans-2e" transform="translate(147.412109 0)"/>
       <use xlink:href="#DejaVuSans-30" transform="translate(179.199219 0)"/>
       <use xlink:href="#DejaVuSans-33" transform="translate(242.822266 0)"/>
      </g>
     </g>
    </g>
    <g id="xtick_4">
     <g id="line2d_7">
      <path d="M 187.965023 444.032344 
L 187.965023 38.117344 
" clip-path="url(#p53cc302d90)" style="fill: none; stroke: #cccccc; stroke-opacity: 0.12; stroke-width: 0.8; stroke-linecap: round"/>
     </g>
     <g id="line2d_8"/>
     <g id="text_4">
      <!-- −0.02 -->
      <g style="fill: #262626" transform="translate(172.642367 455.130781) scale(0.1 -0.1)">
       <defs>
        <path id="DejaVuSans-32" d="M 1228 531 
L 3431 531 
L 3431 0 
L 469 0 
L 469 531 
Q 828 903 1448 1529 
Q 2069 2156 2228 2338 
Q 2531 2678 2651 2914 
Q 2772 3150 2772 3378 
Q 2772 3750 2511 3984 
Q 2250 4219 1831 4219 
Q 1534 4219 1204 4116 
Q 875 4013 500 3803 
L 500 4441 
Q 881 4594 1212 4672 
Q 1544 4750 1819 4750 
Q 2544 4750 2975 4387 
Q 3406 4025 3406 3419 
Q 3406 3131 3298 2873 
Q 3191 2616 2906 2266 
Q 2828 2175 2409 1742 
Q 1991 1309 1228 531 
z
" transform="scale(0.015625)"/>
       </defs>
       <use xlink:href="#DejaVuSans-2212"/>
       <use xlink:href="#DejaVuSans-30" transform="translate(83.789062 0)"/>
       <use xlink:href="#DejaVuSans-2e" transform="translate(147.412109 0)"/>
       <use xlink:href="#DejaVuSans-30" transform="translate(179.199219 0)"/>
       <use xlink:href="#DejaVuSans-32" transform="translate(242.822266 0)"/>
      </g>
     </g>
    </g>
    <g id="xtick_5">
     <g id="line2d_9">
      <path d="M 229.85646 444.032344 
L 229.85646 38.117344 
" clip-path="url(#p53cc302d90)" style="fill: none; stroke: #cccccc; stroke-opacity: 0.12; stroke-width: 0.8; stroke-linecap: round"/>
     </g>
     <g id="line2d_10"/>
     <g id="text_5">
      <!-- −0.01 -->
      <g style="fill: #262626" transform="translate(214.533804 455.130781) scale(0.1 -0.1)">
       <defs>
        <path id="DejaVuSans-31" d="M 794 531 
L 1825 531 
L 1825 4091 
L 703 3866 
L 703 4441 
L 1819 4666 
L 2450 4666 
L 2450 531 
L 3481 531 
L 3481 0 
L 794 0 
L 794 531 
z
" transform="scale(0.015625)"/>
       </defs>
       <use xlink:href="#DejaVuSans-2212"/>
       <use xlink:href="#DejaVuSans-30" transform="translate(83.789062 0)"/>
       <use xlink:href="#DejaVuSans-2e" transform="translate(147.412109 0)"/>
       <use xlink:href="#DejaVuSans-30" transform="translate(179.199219 0)"/>
       <use xlink:href="#DejaVuSans-31" transform="translate(242.822266 0)"/>
      </g>
     </g>
    </g>
    <g id="xtick_6">
     <g id="line2d_11">
      <path d="M 271.747898 444.032344 
L 271.747898 38.117344 
" clip-path="url(#p53cc302d90)" style="fill: none; stroke: #cccccc; stroke-opacity: 0.12; stroke-width: 0.8; stroke-linecap: round"/>
     </g>
     <g id="line2d_12"/>
     <g id="text_6">
      <!-- 0.00 -->
      <g style="fill: #262626" transform="translate(260.615085 455.130781) scale(0.1 -0.1)">
       <use xlink:href="#DejaVuSans-30"/>
       <use xlink:href="#DejaVuSans-2e" transform="translate(63.623047 0)"/>
       <use xlink:href="#DejaVuSans-30" transform="translate(95.410156 0)"/>
       <use xlink:href="#DejaVuSans-30" transform="translate(159.033203 0)"/>
      </g>
     </g>
    </g>
    <g id="xtick_7">
     <g id="line2d_13">
      <path d="M 313.639335 444.032344 
L 313.639335 38.117344 
" clip-path="url(#p53cc302d90)" style="fill: none; stroke: #cccccc; stroke-opacity: 0.12; stroke-width: 0.8; stroke-linecap: round"/>
     </g>
     <g id="line2d_14"/>
     <g id="text_7">
      <!-- 0.01 -->
      <g style="fill: #262626" transform="translate(302.506523 455.130781) scale(0.1 -0.1)">
       <use xlink:href="#DejaVuSans-30"/>
       <use xlink:href="#DejaVuSans-2e" transform="translate(63.623047 0)"/>
       <use xlink:href="#DejaVuSans-30" transform="translate(95.410156 0)"/>
       <use xlink:href="#DejaVuSans-31" transform="translate(159.033203 0)"/>
      </g>
     </g>
    </g>
    <g id="xtick_8">
     <g id="line2d_15">
      <path d="M 355.530773 444.032344 
L 355.530773 38.117344 
" clip-path="url(#p53cc302d90)" style="fill: none; stroke: #cccccc; stroke-opacity: 0.12; stroke-width: 0.8; stroke-linecap: round"/>
     </g>
     <g id="line2d_16"/>
     <g id="text_8">
      <!-- 0.02 -->
      <g style="fill: #262626" transform="translate(344.39796 455.130781) scale(0.1 -0.1)">
       <use xlink:href="#DejaVuSans-30"/>
       <use xlink:href="#DejaVuSans-2e" transform="translate(63.623047 0)"/>
       <use xlink:href="#DejaVuSans-30" transform="translate(95.410156 0)"/>
       <use xlink:href="#DejaVuSans-32" transform="translate(159.033203 0)"/>
      </g>
     </g>
    </g>
    <g id="xtick_9">
     <g id="line2d_17">
      <path d="M 397.42221 444.032344 
L 397.42221 38.117344 
" clip-path="url(#p53cc302d90)" style="fill: none; stroke: #cccccc; stroke-opacity: 0.12; stroke-width: 0.8; stroke-linecap: round"/>
     </g>
     <g id="line2d_18"/>
     <g id="text_9">
      <!-- 0.03 -->
      <g style="fill: #262626" transform="translate(386.289398 455.130781) scale(0.1 -0.1)">
       <use xlink:href="#DejaVuSans-30"/>
       <use xlink:href="#DejaVuSans-2e" transform="translate(63.623047 0)"/>
       <use xlink:href="#DejaVuSans-30" transform="translate(95.410156 0)"/>
       <use xlink:href="#DejaVuSans-33" transform="translate(159.033203 0)"/>
      </g>
     </g>
    </g>
    <g id="text_10">
     <!-- PC1 (27.1% var) -->
     <g style="fill: #262626" transform="translate(189.51285 470.328594) scale(0.12 -0.12)">
      <defs>
       <path id="DejaVuSans-50" d="M 1259 4147 
L 1259 2394 
L 2053 2394 
Q 2494 2394 2734 2622 
Q 2975 2850 2975 3272 
Q 2975 3691 2734 3919 
Q 2494 4147 2053 4147 
L 1259 4147 
z
M 628 4666 
L 2053 4666 
Q 2838 4666 3239 4311 
Q 3641 3956 3641 3272 
Q 3641 2581 3239 2228 
Q 2838 1875 2053 1875 
L 1259 1875 
L 1259 0 
L 628 0 
L 628 4666 
z
" transform="scale(0.015625)"/>
       <path id="DejaVuSans-43" d="M 4122 4306 
L 4122 3641 
Q 3803 3938 3442 4084 
Q 3081 4231 2675 4231 
Q 1875 4231 1450 3742 
Q 1025 3253 1025 2328 
Q 1025 1406 1450 917 
Q 1875 428 2675 428 
Q 3081 428 3442 575 
Q 3803 722 4122 1019 
L 4122 359 
Q 3791 134 3420 21 
Q 3050 -91 2638 -91 
Q 1578 -91 968 557 
Q 359 1206 359 2328 
Q 359 3453 968 4101 
Q 1578 4750 2638 4750 
Q 3056 4750 3426 4639 
Q 3797 4528 4122 4306 
z
" transform="scale(0.015625)"/>
       <path id="DejaVuSans-20" transform="scale(0.015625)"/>
       <path id="DejaVuSans-28" d="M 1984 4856 
Q 1566 4138 1362 3434 
Q 1159 2731 1159 2009 
Q 1159 1288 1364 580 
Q 1569 -128 1984 -844 
L 1484 -844 
Q 1016 -109 783 600 
Q 550 1309 550 2009 
Q 550 2706 781 3412 
Q 1013 4119 1484 4856 
L 1984 4856 
z
" transform="scale(0.015625)"/>
       <path id="DejaVuSans-37" d="M 525 4666 
L 3525 4666 
L 3525 4397 
L 1831 0 
L 1172 0 
L 2766 4134 
L 525 4134 
L 525 4666 
z
" transform="scale(0.015625)"/>
       <path id="DejaVuSans-25" d="M 4653 2053 
Q 4381 2053 4226 1822 
Q 4072 1591 4072 1178 
Q 4072 772 4226 539 
Q 4381 306 4653 306 
Q 4919 306 5073 539 
Q 5228 772 5228 1178 
Q 5228 1588 5073 1820 
Q 4919 2053 4653 2053 
z
M 4653 2450 
Q 5147 2450 5437 2106 
Q 5728 1763 5728 1178 
Q 5728 594 5436 251 
Q 5144 -91 4653 -91 
Q 4153 -91 3862 251 
Q 3572 594 3572 1178 
Q 3572 1766 3864 2108 
Q 4156 2450 4653 2450 
z
M 1428 4353 
Q 1159 4353 1004 4120 
Q 850 3888 850 3481 
Q 850 3069 1003 2837 
Q 1156 2606 1428 2606 
Q 1700 2606 1854 2837 
Q 2009 3069 2009 3481 
Q 2009 3884 1853 4118 
Q 1697 4353 1428 4353 
z
M 4250 4750 
L 4750 4750 
L 1831 -91 
L 1331 -91 
L 4250 4750 
z
M 1428 4750 
Q 1922 4750 2215 4408 
Q 2509 4066 2509 3481 
Q 2509 2891 2217 2550 
Q 1925 2209 1428 2209 
Q 931 2209 642 2551 
Q 353 2894 353 3481 
Q 353 4063 643 4406 
Q 934 4750 1428 4750 
z
" transform="scale(0.015625)"/>
       <path id="DejaVuSans-76" d="M 191 3500 
L 800 3500 
L 1894 563 
L 2988 3500 
L 3597 3500 
L 2284 0 
L 1503 0 
L 191 3500 
z
" transform="scale(0.015625)"/>
       <path id="DejaVuSans-61" d="M 2194 1759 
Q 1497 1759 1228 1600 
Q 959 1441 959 1056 
Q 959 750 1161 570 
Q 1363 391 1709 391 
Q 2188 391 2477 730 
Q 2766 1069 2766 1631 
L 2766 1759 
L 2194 1759 
z
M 3341 1997 
L 3341 0 
L 2766 0 
L 2766 531 
Q 2569 213 2275 61 
Q 1981 -91 1556 -91 
Q 1019 -91 701 211 
Q 384 513 384 1019 
Q 384 1609 779 1909 
Q 1175 2209 1959 2209 
L 2766 2209 
L 2766 2266 
Q 2766 2663 2505 2880 
Q 2244 3097 1772 3097 
Q 1472 3097 1187 3025 
Q 903 2953 641 2809 
L 641 3341 
Q 956 3463 1253 3523 
Q 1550 3584 1831 3584 
Q 2591 3584 2966 3190 
Q 3341 2797 3341 1997 
z
" transform="scale(0.015625)"/>
       <path id="DejaVuSans-72" d="M 2631 2963 
Q 2534 3019 2420 3045 
Q 2306 3072 2169 3072 
Q 1681 3072 1420 2755 
Q 1159 2438 1159 1844 
L 1159 0 
L 581 0 
L 581 3500 
L 1159 3500 
L 1159 2956 
Q 1341 3275 1631 3429 
Q 1922 3584 2338 3584 
Q 2397 3584 2469 3576 
Q 2541 3569 2628 3553 
L 2631 2963 
z
" transform="scale(0.015625)"/>
       <path id="DejaVuSans-29" d="M 513 4856 
L 1013 4856 
Q 1481 4119 1714 3412 
Q 1947 2706 1947 2009 
Q 1947 1309 1714 600 
Q 1481 -109 1013 -844 
L 513 -844 
Q 928 -128 1133 580 
Q 1338 1288 1338 2009 
Q 1338 2731 1133 3434 
Q 928 4138 513 4856 
z
" transform="scale(0.015625)"/>
      </defs>
      <use xlink:href="#DejaVuSans-50"/>
      <use xlink:href="#DejaVuSans-43" transform="translate(60.302734 0)"/>
      <use xlink:href="#DejaVuSans-31" transform="translate(130.126953 0)"/>
      <use xlink:href="#DejaVuSans-20" transform="translate(193.75 0)"/>
      <use xlink:href="#DejaVuSans-28" transform="translate(225.537109 0)"/>
      <use xlink:href="#DejaVuSans-32" transform="translate(264.550781 0)"/>
      <use xlink:href="#DejaVuSans-37" transform="translate(328.173828 0)"/>
      <use xlink:href="#DejaVuSans-2e" transform="translate(391.796875 0)"/>
      <use xlink:href="#DejaVuSans-31" transform="translate(423.583984 0)"/>
      <use xlink:href="#DejaVuSans-25" transform="translate(487.207031 0)"/>
      <use xlink:href="#DejaVuSans-20" transform="translate(582.226562 0)"/>
      <use xlink:href="#DejaVuSans-76" transform="translate(614.013672 0)"/>
      <use xlink:href="#DejaVuSans-61" transform="translate(673.193359 0)"/>
      <use xlink:href="#DejaVuSans-72" transform="translate(734.472656 0)"/>
      <use xlink:href="#DejaVuSans-29" transform="translate(775.585938 0)"/>
     </g>
    </g>
   </g>
   <g id="matplotlib.axis_2">
    <g id="ytick_1">
     <g id="line2d_19">
      <path d="M 56.959063 433.652747 
L 419.817888 433.652747 
" clip-path="url(#p53cc302d90)" style="fill: none; stroke: #cccccc; stroke-opacity: 0.12; stroke-width: 0.8; stroke-linecap: round"/>
     </g>
     <g id="line2d_20"/>
     <g id="text_11">
      <!-- −0.03 -->
      <g style="fill: #262626" transform="translate(22.81375 437.451966) scale(0.1 -0.1)">
       <use xlink:href="#DejaVuSans-2212"/>
       <use xlink:href="#DejaVuSans-30" transform="translate(83.789062 0)"/>
       <use xlink:href="#DejaVuSans-2e" transform="translate(147.412109 0)"/>
       <use xlink:href="#DejaVuSans-30" transform="translate(179.199219 0)"/>
       <use xlink:href="#DejaVuSans-33" transform="translate(242.822266 0)"/>
      </g>
     </g>
    </g>
    <g id="ytick_2">
     <g id="line2d_21">
      <path d="M 56.959063 369.310692 
L 419.817888 369.310692 
" clip-path="url(#p53cc302d90)" style="fill: none; stroke: #cccccc; stroke-opacity: 0.12; stroke-width: 0.8; stroke-linecap: round"/>
     </g>
     <g id="line2d_22"/>
     <g id="text_12">
      <!-- −0.02 -->
      <g style="fill: #262626" transform="translate(22.81375 373.109911) scale(0.1 -0.1)">
       <use xlink:href="#DejaVuSans-2212"/>
       <use xlink:href="#DejaVuSans-30" transform="translate(83.789062 0)"/>
       <use xlink:href="#DejaVuSans-2e" transform="translate(147.412109 0)"/>
       <use xlink:href="#DejaVuSans-30" transform="translate(179.199219 0)"/>
       <use xlink:href="#DejaVuSans-32" transform="translate(242.822266 0)"/>
      </g>
     </g>
    </g>
    <g id="ytick_3">
     <g id="line2d_23">
      <path d="M 56.959063 304.968636 
L 419.817888 304.968636 
" clip-path="url(#p53cc302d90)" style="fill: none; stroke: #cccccc; stroke-opacity: 0.12; stroke-width: 0.8; stroke-linecap: round"/>
     </g>
     <g id="line2d_24"/>
     <g id="text_13">
      <!-- −0.01 -->
      <g style="fill: #262626" transform="translate(22.81375 308.767855) scale(0.1 -0.1)">
       <use xlink:href="#DejaVuSans-2212"/>
       <use xlink:href="#DejaVuSans-30" transform="translate(83.789062 0)"/>
       <use xlink:href="#DejaVuSans-2e" transform="translate(147.412109 0)"/>
       <use xlink:href="#DejaVuSans-30" transform="translate(179.199219 0)"/>
       <use xlink:href="#DejaVuSans-31" transform="translate(242.822266 0)"/>
      </g>
     </g>
    </g>
    <g id="ytick_4">
     <g id="line2d_25">
      <path d="M 56.959063 240.626581 
L 419.817888 240.626581 
" clip-path="url(#p53cc302d90)" style="fill: none; stroke: #cccccc; stroke-opacity: 0.12; stroke-width: 0.8; stroke-linecap: round"/>
     </g>
     <g id="line2d_26"/>
     <g id="text_14">
      <!-- 0.00 -->
      <g style="fill: #262626" transform="translate(31.193438 244.4258) scale(0.1 -0.1)">
       <use xlink:href="#DejaVuSans-30"/>
       <use xlink:href="#DejaVuSans-2e" transform="translate(63.623047 0)"/>
       <use xlink:href="#DejaVuSans-30" transform="translate(95.410156 0)"/>
       <use xlink:href="#DejaVuSans-30" transform="translate(159.033203 0)"/>
      </g>
     </g>
    </g>
    <g id="ytick_5">
     <g id="line2d_27">
      <path d="M 56.959063 176.284526 
L 419.817888 176.284526 
" clip-path="url(#p53cc302d90)" style="fill: none; stroke: #cccccc; stroke-opacity: 0.12; stroke-width: 0.8; stroke-linecap: round"/>
     </g>
     <g id="line2d_28"/>
     <g id="text_15">
      <!-- 0.01 -->
      <g style="fill: #262626" transform="translate(31.193438 180.083745) scale(0.1 -0.1)">
       <use xlink:href="#DejaVuSans-30"/>
       <use xlink:href="#DejaVuSans-2e" transform="translate(63.623047 0)"/>
       <use xlink:href="#DejaVuSans-30" transform="translate(95.410156 0)"/>
       <use xlink:href="#DejaVuSans-31" transform="translate(159.033203 0)"/>
      </g>
     </g>
    </g>
    <g id="ytick_6">
     <g id="line2d_29">
      <path d="M 56.959063 111.94247 
L 419.817888 111.94247 
" clip-path="url(#p53cc302d90)" style="fill: none; stroke: #cccccc; stroke-opacity: 0.12; stroke-width: 0.8; stroke-linecap: round"/>
     </g>
     <g id="line2d_30"/>
     <g id="text_16">
      <!-- 0.02 -->
      <g style="fill: #262626" transform="translate(31.193438 115.741689) scale(0.1 -0.1)">
       <use xlink:href="#DejaVuSans-30"/>
       <use xlink:href="#DejaVuSans-2e" transform="translate(63.623047 0)"/>
       <use xlink:href="#DejaVuSans-30" transform="translate(95.410156 0)"/>
       <use xlink:href="#DejaVuSans-32" transform="translate(159.033203 0)"/>
      </g>
     </g>
    </g>
    <g id="ytick_7">
     <g id="line2d_31">
      <path d="M 56.959063 47.600415 
L 419.817888 47.600415 
" clip-path="url(#p53cc302d90)" style="fill: none; stroke: #cccccc; stroke-opacity: 0.12; stroke-width: 0.8; stroke-linecap: round"/>
     </g>
     <g id="line2d_32"/>
     <g id="text_17">
      <!-- 0.03 -->
      <g style="fill: #262626" transform="translate(31.193438 51.399634) scale(0.1 -0.1)">
       <use xlink:href="#DejaVuSans-30"/>
       <use xlink:href="#DejaVuSans-2e" transform="translate(63.623047 0)"/>
       <use xlink:href="#DejaVuSans-30" transform="translate(95.410156 0)"/>
       <use xlink:href="#DejaVuSans-33" transform="translate(159.033203 0)"/>
      </g>
     </g>
    </g>
    <g id="text_18">
     <!-- PC2 (21.0% var) -->
     <g style="fill: #262626" transform="translate(16.318125 289.950469) rotate(-90) scale(0.12 -0.12)">
      <use xlink:href="#DejaVuSans-50"/>
      <use xlink:href="#DejaVuSans-43" transform="translate(60.302734 0)"/>
      <use xlink:href="#DejaVuSans-32" transform="translate(130.126953 0)"/>
      <use xlink:href="#DejaVuSans-20" transform="translate(193.75 0)"/>
      <use xlink:href="#DejaVuSans-28" transform="translate(225.537109 0)"/>
      <use xlink:href="#DejaVuSans-32" transform="translate(264.550781 0)"/>
      <use xlink:href="#DejaVuSans-31" transform="translate(328.173828 0)"/>
      <use xlink:href="#DejaVuSans-2e" transform="translate(391.796875 0)"/>
      <use xlink:href="#DejaVuSans-30" transform="translate(423.583984 0)"/>
      <use xlink:href="#DejaVuSans-25" transform="translate(487.207031 0)"/>
      <use xlink:href="#DejaVuSans-20" transform="translate(582.226562 0)"/>
      <use xlink:href="#DejaVuSans-76" transform="translate(614.013672 0)"/>
      <use xlink:href="#DejaVuSans-61" transform="translate(673.193359 0)"/>
      <use xlink:href="#DejaVuSans-72" transform="translate(734.472656 0)"/>
      <use xlink:href="#DejaVuSans-29" transform="translate(775.585938 0)"/>
     </g>
    </g>
   </g>
   <g id="patch_3">
    <path d="M 218.293158 139.27152 
C 195.024843 169.32867 179.365788 210.320395 174.764717 253.218744 
C 170.163647 296.117093 176.996219 337.419605 193.757638 368.029882 
C 210.519057 398.640159 235.840828 416.059006 264.146124 416.450126 
C 292.451421 416.841245 321.429241 400.172703 344.697556 370.115553 
C 367.965871 340.058403 383.624927 299.066678 388.225997 256.168329 
C 392.827068 213.26998 385.994496 171.967467 369.233077 141.357191 
C 352.471658 110.746914 327.149887 93.328066 298.84459 92.936947 
C 270.539294 92.545828 241.561474 109.214369 218.293158 139.27152 
z
" clip-path="url(#p53cc302d90)" style="fill: #2563eb; opacity: 0.08; stroke: #2563eb; stroke-width: 1.4; stroke-linejoin: miter"/>
   </g>
   <g id="patch_4">
    <path d="M 270.960119 110.747346 
C 235.009028 77.647176 195.741367 58.156541 161.805381 56.568026 
C 127.869396 54.97951 102.035809 71.422811 89.994169 102.27648 
C 77.952529 133.13015 80.685982 175.875124 97.592517 221.097318 
C 114.499052 266.319512 144.198325 310.326733 180.149415 343.426903 
C 216.100506 376.527072 255.368168 396.017708 289.304154 397.606223 
C 323.240139 399.194739 349.073726 382.751438 361.115366 351.897768 
C 373.157006 321.044099 370.423553 278.299125 353.517018 233.076931 
C 336.610483 187.854737 306.91121 143.847516 270.960119 110.747346 
z
" clip-path="url(#p53cc302d90)" style="fill: #d97706; opacity: 0.08; stroke: #d97706; stroke-width: 1.4; stroke-linejoin: miter"/>
   </g>
   <g id="patch_5">
    <path d="M 56.959063 444.032344 
L 56.959063 38.117344 
" style="fill: none; stroke: #262626; stroke-width: 1.25; stroke-linejoin: miter; stroke-linecap: square"/>
   </g>
   <g id="patch_6">
    <path d="M 56.959063 444.032344 
L 419.817888 444.032344 
" style="fill: none; stroke: #262626; stroke-width: 1.25; stroke-linejoin: miter; stroke-linecap: square"/>
   </g>
   <g id="text_19">
    <!-- Exploratory only - tiny imbalanced cohort, not for clinical interpretation -->
    <g style="fill: #475569" transform="translate(56.959063 29.999044) scale(0.105 -0.105)">
     <defs>
      <path id="DejaVuSans-45" d="M 628 4666 
L 3578 4666 
L 3578 4134 
L 1259 4134 
L 1259 2753 
L 3481 2753 
L 3481 2222 
L 1259 2222 
L 1259 531 
L 3634 531 
L 3634 0 
L 628 0 
L 628 4666 
z
" transform="scale(0.015625)"/>
      <path id="DejaVuSans-78" d="M 3513 3500 
L 2247 1797 
L 3578 0 
L 2900 0 
L 1881 1375 
L 863 0 
L 184 0 
L 1544 1831 
L 300 3500 
L 978 3500 
L 1906 2253 
L 2834 3500 
L 3513 3500 
z
" transform="scale(0.015625)"/>
      <path id="DejaVuSans-70" d="M 1159 525 
L 1159 -1331 
L 581 -1331 
L 581 3500 
L 1159 3500 
L 1159 2969 
Q 1341 3281 1617 3432 
Q 1894 3584 2278 3584 
Q 2916 3584 3314 3078 
Q 3713 2572 3713 1747 
Q 3713 922 3314 415 
Q 2916 -91 2278 -91 
Q 1894 -91 1617 61 
Q 1341 213 1159 525 
z
M 3116 1747 
Q 3116 2381 2855 2742 
Q 2594 3103 2138 3103 
Q 1681 3103 1420 2742 
Q 1159 2381 1159 1747 
Q 1159 1113 1420 752 
Q 1681 391 2138 391 
Q 2594 391 2855 752 
Q 3116 1113 3116 1747 
z
" transform="scale(0.015625)"/>
      <path id="DejaVuSans-6c" d="M 603 4863 
L 1178 4863 
L 1178 0 
L 603 0 
L 603 4863 
z
" transform="scale(0.015625)"/>
      <path id="DejaVuSans-6f" d="M 1959 3097 
Q 1497 3097 1228 2736 
Q 959 2375 959 1747 
Q 959 1119 1226 758 
Q 1494 397 1959 397 
Q 2419 397 2687 759 
Q 2956 1122 2956 1747 
Q 2956 2369 2687 2733 
Q 2419 3097 1959 3097 
z
M 1959 3584 
Q 2709 3584 3137 3096 
Q 3566 2609 3566 1747 
Q 3566 888 3137 398 
Q 2709 -91 1959 -91 
Q 1206 -91 779 398 
Q 353 888 353 1747 
Q 353 2609 779 3096 
Q 1206 3584 1959 3584 
z
" transform="scale(0.015625)"/>
      <path id="DejaVuSans-74" d="M 1172 4494 
L 1172 3500 
L 2356 3500 
L 2356 3053 
L 1172 3053 
L 1172 1153 
Q 1172 725 1289 603 
Q 1406 481 1766 481 
L 2356 481 
L 2356 0 
L 1766 0 
Q 1100 0 847 248 
Q 594 497 594 1153 
L 594 3053 
L 172 3053 
L 172 3500 
L 594 3500 
L 594 4494 
L 1172 4494 
z
" transform="scale(0.015625)"/>
      <path id="DejaVuSans-79" d="M 2059 -325 
Q 1816 -950 1584 -1140 
Q 1353 -1331 966 -1331 
L 506 -1331 
L 506 -850 
L 844 -850 
Q 1081 -850 1212 -737 
Q 1344 -625 1503 -206 
L 1606 56 
L 191 3500 
L 800 3500 
L 1894 763 
L 2988 3500 
L 3597 3500 
L 2059 -325 
z
" transform="scale(0.015625)"/>
      <path id="DejaVuSans-6e" d="M 3513 2113 
L 3513 0 
L 2938 0 
L 2938 2094 
Q 2938 2591 2744 2837 
Q 2550 3084 2163 3084 
Q 1697 3084 1428 2787 
Q 1159 2491 1159 1978 
L 1159 0 
L 581 0 
L 581 3500 
L 1159 3500 
L 1159 2956 
Q 1366 3272 1645 3428 
Q 1925 3584 2291 3584 
Q 2894 3584 3203 3211 
Q 3513 2838 3513 2113 
z
" transform="scale(0.015625)"/>
      <path id="DejaVuSans-2d" d="M 313 2009 
L 1997 2009 
L 1997 1497 
L 313 1497 
L 313 2009 
z
" transform="scale(0.015625)"/>
      <path id="DejaVuSans-69" d="M 603 3500 
L 1178 3500 
L 1178 0 
L 603 0 
L 603 3500 
z
M 603 4863 
L 1178 4863 
L 1178 4134 
L 603 4134 
L 603 4863 
z
" transform="scale(0.015625)"/>
      <path id="DejaVuSans-6d" d="M 3328 2828 
Q 3544 3216 3844 3400 
Q 4144 3584 4550 3584 
Q 5097 3584 5394 3201 
Q 5691 2819 5691 2113 
L 5691 0 
L 5113 0 
L 5113 2094 
Q 5113 2597 4934 2840 
Q 4756 3084 4391 3084 
Q 3944 3084 3684 2787 
Q 3425 2491 3425 1978 
L 3425 0 
L 2847 0 
L 2847 2094 
Q 2847 2600 2669 2842 
Q 2491 3084 2119 3084 
Q 1678 3084 1418 2786 
Q 1159 2488 1159 1978 
L 1159 0 
L 581 0 
L 581 3500 
L 1159 3500 
L 1159 2956 
Q 1356 3278 1631 3431 
Q 1906 3584 2284 3584 
Q 2666 3584 2933 3390 
Q 3200 3197 3328 2828 
z
" transform="scale(0.015625)"/>
      <path id="DejaVuSans-62" d="M 3116 1747 
Q 3116 2381 2855 2742 
Q 2594 3103 2138 3103 
Q 1681 3103 1420 2742 
Q 1159 2381 1159 1747 
Q 1159 1113 1420 752 
Q 1681 391 2138 391 
Q 2594 391 2855 752 
Q 3116 1113 3116 1747 
z
M 1159 2969 
Q 1341 3281 1617 3432 
Q 1894 3584 2278 3584 
Q 2916 3584 3314 3078 
Q 3713 2572 3713 1747 
Q 3713 922 3314 415 
Q 2916 -91 2278 -91 
Q 1894 -91 1617 61 
Q 1341 213 1159 525 
L 1159 0 
L 581 0 
L 581 4863 
L 1159 4863 
L 1159 2969 
z
" transform="scale(0.015625)"/>
      <path id="DejaVuSans-63" d="M 3122 3366 
L 3122 2828 
Q 2878 2963 2633 3030 
Q 2388 3097 2138 3097 
Q 1578 3097 1268 2742 
Q 959 2388 959 1747 
Q 959 1106 1268 751 
Q 1578 397 2138 397 
Q 2388 397 2633 464 
Q 2878 531 3122 666 
L 3122 134 
Q 2881 22 2623 -34 
Q 2366 -91 2075 -91 
Q 1284 -91 818 406 
Q 353 903 353 1747 
Q 353 2603 823 3093 
Q 1294 3584 2113 3584 
Q 2378 3584 2631 3529 
Q 2884 3475 3122 3366 
z
" transform="scale(0.015625)"/>
      <path id="DejaVuSans-65" d="M 3597 1894 
L 3597 1613 
L 953 1613 
Q 991 1019 1311 708 
Q 1631 397 2203 397 
Q 2534 397 2845 478 
Q 3156 559 3463 722 
L 3463 178 
Q 3153 47 2828 -22 
Q 2503 -91 2169 -91 
Q 1331 -91 842 396 
Q 353 884 353 1716 
Q 353 2575 817 3079 
Q 1281 3584 2069 3584 
Q 2775 3584 3186 3129 
Q 3597 2675 3597 1894 
z
M 3022 2063 
Q 3016 2534 2758 2815 
Q 2500 3097 2075 3097 
Q 1594 3097 1305 2825 
Q 1016 2553 972 2059 
L 3022 2063 
z
" transform="scale(0.015625)"/>
      <path id="DejaVuSans-64" d="M 2906 2969 
L 2906 4863 
L 3481 4863 
L 3481 0 
L 2906 0 
L 2906 525 
Q 2725 213 2448 61 
Q 2172 -91 1784 -91 
Q 1150 -91 751 415 
Q 353 922 353 1747 
Q 353 2572 751 3078 
Q 1150 3584 1784 3584 
Q 2172 3584 2448 3432 
Q 2725 3281 2906 2969 
z
M 947 1747 
Q 947 1113 1208 752 
Q 1469 391 1925 391 
Q 2381 391 2643 752 
Q 2906 1113 2906 1747 
Q 2906 2381 2643 2742 
Q 2381 3103 1925 3103 
Q 1469 3103 1208 2742 
Q 947 2381 947 1747 
z
" transform="scale(0.015625)"/>
      <path id="DejaVuSans-68" d="M 3513 2113 
L 3513 0 
L 2938 0 
L 2938 2094 
Q 2938 2591 2744 2837 
Q 2550 3084 2163 3084 
Q 1697 3084 1428 2787 
Q 1159 2491 1159 1978 
L 1159 0 
L 581 0 
L 581 4863 
L 1159 4863 
L 1159 2956 
Q 1366 3272 1645 3428 
Q 1925 3584 2291 3584 
Q 2894 3584 3203 3211 
Q 3513 2838 3513 2113 
z
" transform="scale(0.015625)"/>
      <path id="DejaVuSans-2c" d="M 750 794 
L 1409 794 
L 1409 256 
L 897 -744 
L 494 -744 
L 750 256 
L 750 794 
z
" transform="scale(0.015625)"/>
      <path id="DejaVuSans-66" d="M 2375 4863 
L 2375 4384 
L 1825 4384 
Q 1516 4384 1395 4259 
Q 1275 4134 1275 3809 
L 1275 3500 
L 2222 3500 
L 2222 3053 
L 1275 3053 
L 1275 0 
L 697 0 
L 697 3053 
L 147 3053 
L 147 3500 
L 697 3500 
L 697 3744 
Q 697 4328 969 4595 
Q 1241 4863 1831 4863 
L 2375 4863 
z
" transform="scale(0.015625)"/>
     </defs>
     <use xlink:href="#DejaVuSans-45"/>
     <use xlink:href="#DejaVuSans-78" transform="translate(63.183594 0)"/>
     <use xlink:href="#DejaVuSans-70" transform="translate(122.363281 0)"/>
     <use xlink:href="#DejaVuSans-6c" transform="translate(185.839844 0)"/>
     <use xlink:href="#DejaVuSans-6f" transform="translate(213.623047 0)"/>
     <use xlink:href="#DejaVuSans-72" transform="translate(274.804688 0)"/>
     <use xlink:href="#DejaVuSans-61" transform="translate(315.917969 0)"/>
     <use xlink:href="#DejaVuSans-74" transform="translate(377.197266 0)"/>
     <use xlink:href="#DejaVuSans-6f" transform="translate(416.40625 0)"/>
     <use xlink:href="#DejaVuSans-72" transform="translate(477.587891 0)"/>
     <use xlink:href="#DejaVuSans-79" transform="translate(518.701172 0)"/>
     <use xlink:href="#DejaVuSans-20" transform="translate(577.880859 0)"/>
     <use xlink:href="#DejaVuSans-6f" transform="translate(609.667969 0)"/>
     <use xlink:href="#DejaVuSans-6e" transform="translate(670.849609 0)"/>
     <use xlink:href="#DejaVuSans-6c" transform="translate(734.228516 0)"/>
     <use xlink:href="#DejaVuSans-79" transform="translate(762.011719 0)"/>
     <use xlink:href="#DejaVuSans-20" transform="translate(821.191406 0)"/>
     <use xlink:href="#DejaVuSans-2d" transform="translate(852.978516 0)"/>
     <use xlink:href="#DejaVuSans-20" transform="translate(889.0625 0)"/>
     <use xlink:href="#DejaVuSans-74" transform="translate(920.849609 0)"/>
     <use xlink:href="#DejaVuSans-69" transform="translate(960.058594 0)"/>
     <use xlink:href="#DejaVuSans-6e" transform="translate(987.841797 0)"/>
     <use xlink:href="#DejaVuSans-79" transform="translate(1051.220703 0)"/>
     <use xlink:href="#DejaVuSans-20" transform="translate(1110.400391 0)"/>
     <use xlink:href="#DejaVuSans-69" transform="translate(1142.1875 0)"/>
     <use xlink:href="#DejaVuSans-6d" transform="translate(1169.970703 0)"/>
     <use xlink:href="#DejaVuSans-62" transform="translate(1267.382812 0)"/>
     <use xlink:href="#DejaVuSans-61" transform="translate(1330.859375 0)"/>
     <use xlink:href="#DejaVuSans-6c" transform="translate(1392.138672 0)"/>
     <use xlink:href="#DejaVuSans-61" transform="translate(1419.921875 0)"/>
     <use xlink:href="#DejaVuSans-6e" transform="translate(1481.201172 0)"/>
     <use xlink:href="#DejaVuSans-63" transform="translate(1544.580078 0)"/>
     <use xlink:href="#DejaVuSans-65" transform="translate(1599.560547 0)"/>
     <use xlink:href="#DejaVuSans-64" transform="translate(1661.083984 0)"/>
     <use xlink:href="#DejaVuSans-20" transform="translate(1724.560547 0)"/>
     <use xlink:href="#DejaVuSans-63" transform="translate(1756.347656 0)"/>
     <use xlink:href="#DejaVuSans-6f" transform="translate(1811.328125 0)"/>
     <use xlink:href="#DejaVuSans-68" transform="translate(1872.509766 0)"/>
     <use xlink:href="#DejaVuSans-6f" transform="translate(1935.888672 0)"/>
     <use xlink:href="#DejaVuSans-72" transform="translate(1997.070312 0)"/>
     <use xlink:href="#DejaVuSans-74" transform="translate(2038.183594 0)"/>
     <use xlink:href="#DejaVuSans-2c" transform="translate(2077.392578 0)"/>
     <use xlink:href="#DejaVuSans-20" transform="translate(2109.179688 0)"/>
     <use xlink:href="#DejaVuSans-6e" transform="translate(2140.966797 0)"/>
     <use xlink:href="#DejaVuSans-6f" transform="translate(2204.345703 0)"/>
     <use xlink:href="#DejaVuSans-74" transform="translate(2265.527344 0)"/>
     <use xlink:href="#DejaVuSans-20" transform="translate(2304.736328 0)"/>
     <use xlink:href="#DejaVuSans-66" transform="translate(2336.523438 0)"/>
     <use xlink:href="#DejaVuSans-6f" transform="translate(2371.728516 0)"/>
     <use xlink:href="#DejaVuSans-72" transform="translate(2432.910156 0)"/>
     <use xlink:href="#DejaVuSans-20" transform="translate(2474.023438 0)"/>
     <use xlink:href="#DejaVuSans-63" transform="translate(2505.810547 0)"/>
     <use xlink:href="#DejaVuSans-6c" transform="translate(2560.791016 0)"/>
     <use xlink:href="#DejaVuSans-69" transform="translate(2588.574219 0)"/>
     <use xlink:href="#DejaVuSans-6e" transform="translate(2616.357422 0)"/>
     <use xlink:href="#DejaVuSans-69" transform="translate(2679.736328 0)"/>
     <use xlink:href="#DejaVuSans-63" transform="translate(2707.519531 0)"/>
     <use xlink:href="#DejaVuSans-61" transform="translate(2762.5 0)"/>
     <use xlink:href="#DejaVuSans-6c" transform="translate(2823.779297 0)"/>
     <use xlink:href="#DejaVuSans-20" transform="translate(2851.5625 0)"/>
     <use xlink:href="#DejaVuSans-69" transform="translate(2883.349609 0)"/>
     <use xlink:href="#DejaVuSans-6e" transform="translate(2911.132812 0)"/>
     <use xlink:href="#DejaVuSans-74" transform="translate(2974.511719 0)"/>
     <use xlink:href="#DejaVuSans-65" transform="translate(3013.720703 0)"/>
     <use xlink:href="#DejaVuSans-72" transform="translate(3075.244141 0)"/>
     <use xlink:href="#DejaVuSans-70" transform="translate(3116.357422 0)"/>
     <use xlink:href="#DejaVuSans-72" transform="translate(3179.833984 0)"/>
     <use xlink:href="#DejaVuSans-65" transform="translate(3218.697266 0)"/>
     <use xlink:href="#DejaVuSans-74" transform="translate(3280.220703 0)"/>
     <use xlink:href="#DejaVuSans-61" transform="translate(3319.429688 0)"/>
     <use xlink:href="#DejaVuSans-74" transform="translate(3380.708984 0)"/>
     <use xlink:href="#DejaVuSans-69" transform="translate(3419.917969 0)"/>
     <use xlink:href="#DejaVuSans-6f" transform="translate(3447.701172 0)"/>
     <use xlink:href="#DejaVuSans-6e" transform="translate(3508.882812 0)"/>
    </g>
   </g>
   <g id="text_20">
    <!-- Pet Only Latent Space (PCA) -->
    <g style="fill: #262626" transform="translate(102.105584 20.117344) scale(0.17 -0.17)">
     <defs>
      <path id="DejaVuSans-Bold-50" d="M 588 4666 
L 2584 4666 
Q 3475 4666 3951 4270 
Q 4428 3875 4428 3144 
Q 4428 2409 3951 2014 
Q 3475 1619 2584 1619 
L 1791 1619 
L 1791 0 
L 588 0 
L 588 4666 
z
M 1791 3794 
L 1791 2491 
L 2456 2491 
Q 2806 2491 2997 2661 
Q 3188 2831 3188 3144 
Q 3188 3456 2997 3625 
Q 2806 3794 2456 3794 
L 1791 3794 
z
" transform="scale(0.015625)"/>
      <path id="DejaVuSans-Bold-65" d="M 4031 1759 
L 4031 1441 
L 1416 1441 
Q 1456 1047 1700 850 
Q 1944 653 2381 653 
Q 2734 653 3104 758 
Q 3475 863 3866 1075 
L 3866 213 
Q 3469 63 3072 -14 
Q 2675 -91 2278 -91 
Q 1328 -91 801 392 
Q 275 875 275 1747 
Q 275 2603 792 3093 
Q 1309 3584 2216 3584 
Q 3041 3584 3536 3087 
Q 4031 2591 4031 1759 
z
M 2881 2131 
Q 2881 2450 2695 2645 
Q 2509 2841 2209 2841 
Q 1884 2841 1681 2658 
Q 1478 2475 1428 2131 
L 2881 2131 
z
" transform="scale(0.015625)"/>
      <path id="DejaVuSans-Bold-74" d="M 1759 4494 
L 1759 3500 
L 2913 3500 
L 2913 2700 
L 1759 2700 
L 1759 1216 
Q 1759 972 1856 886 
Q 1953 800 2241 800 
L 2816 800 
L 2816 0 
L 1856 0 
Q 1194 0 917 276 
Q 641 553 641 1216 
L 641 2700 
L 84 2700 
L 84 3500 
L 641 3500 
L 641 4494 
L 1759 4494 
z
" transform="scale(0.015625)"/>
      <path id="DejaVuSans-Bold-20" transform="scale(0.015625)"/>
      <path id="DejaVuSans-Bold-4f" d="M 2719 3878 
Q 2169 3878 1866 3472 
Q 1563 3066 1563 2328 
Q 1563 1594 1866 1187 
Q 2169 781 2719 781 
Q 3272 781 3575 1187 
Q 3878 1594 3878 2328 
Q 3878 3066 3575 3472 
Q 3272 3878 2719 3878 
z
M 2719 4750 
Q 3844 4750 4481 4106 
Q 5119 3463 5119 2328 
Q 5119 1197 4481 553 
Q 3844 -91 2719 -91 
Q 1597 -91 958 553 
Q 319 1197 319 2328 
Q 319 3463 958 4106 
Q 1597 4750 2719 4750 
z
" transform="scale(0.015625)"/>
      <path id="DejaVuSans-Bold-6e" d="M 4056 2131 
L 4056 0 
L 2931 0 
L 2931 347 
L 2931 1631 
Q 2931 2084 2911 2256 
Q 2891 2428 2841 2509 
Q 2775 2619 2662 2680 
Q 2550 2741 2406 2741 
Q 2056 2741 1856 2470 
Q 1656 2200 1656 1722 
L 1656 0 
L 538 0 
L 538 3500 
L 1656 3500 
L 1656 2988 
Q 1909 3294 2193 3439 
Q 2478 3584 2822 3584 
Q 3428 3584 3742 3212 
Q 4056 2841 4056 2131 
z
" transform="scale(0.015625)"/>
      <path id="DejaVuSans-Bold-6c" d="M 538 4863 
L 1656 4863 
L 1656 0 
L 538 0 
L 538 4863 
z
" transform="scale(0.015625)"/>
      <path id="DejaVuSans-Bold-79" d="M 78 3500 
L 1197 3500 
L 2138 1125 
L 2938 3500 
L 4056 3500 
L 2584 -331 
Q 2363 -916 2067 -1148 
Q 1772 -1381 1288 -1381 
L 641 -1381 
L 641 -647 
L 991 -647 
Q 1275 -647 1404 -556 
Q 1534 -466 1606 -231 
L 1638 -134 
L 78 3500 
z
" transform="scale(0.015625)"/>
      <path id="DejaVuSans-Bold-4c" d="M 588 4666 
L 1791 4666 
L 1791 909 
L 3903 909 
L 3903 0 
L 588 0 
L 588 4666 
z
" transform="scale(0.015625)"/>
      <path id="DejaVuSans-Bold-61" d="M 2106 1575 
Q 1756 1575 1579 1456 
Q 1403 1338 1403 1106 
Q 1403 894 1545 773 
Q 1688 653 1941 653 
Q 2256 653 2472 879 
Q 2688 1106 2688 1447 
L 2688 1575 
L 2106 1575 
z
M 3816 1997 
L 3816 0 
L 2688 0 
L 2688 519 
Q 2463 200 2181 54 
Q 1900 -91 1497 -91 
Q 953 -91 614 226 
Q 275 544 275 1050 
Q 275 1666 698 1953 
Q 1122 2241 2028 2241 
L 2688 2241 
L 2688 2328 
Q 2688 2594 2478 2717 
Q 2269 2841 1825 2841 
Q 1466 2841 1156 2769 
Q 847 2697 581 2553 
L 581 3406 
Q 941 3494 1303 3539 
Q 1666 3584 2028 3584 
Q 2975 3584 3395 3211 
Q 3816 2838 3816 1997 
z
" transform="scale(0.015625)"/>
      <path id="DejaVuSans-Bold-53" d="M 3834 4519 
L 3834 3531 
Q 3450 3703 3084 3790 
Q 2719 3878 2394 3878 
Q 1963 3878 1756 3759 
Q 1550 3641 1550 3391 
Q 1550 3203 1689 3098 
Q 1828 2994 2194 2919 
L 2706 2816 
Q 3484 2659 3812 2340 
Q 4141 2022 4141 1434 
Q 4141 663 3683 286 
Q 3225 -91 2284 -91 
Q 1841 -91 1394 -6 
Q 947 78 500 244 
L 500 1259 
Q 947 1022 1364 901 
Q 1781 781 2169 781 
Q 2563 781 2772 912 
Q 2981 1044 2981 1288 
Q 2981 1506 2839 1625 
Q 2697 1744 2272 1838 
L 1806 1941 
Q 1106 2091 782 2419 
Q 459 2747 459 3303 
Q 459 4000 909 4375 
Q 1359 4750 2203 4750 
Q 2588 4750 2994 4692 
Q 3400 4634 3834 4519 
z
" transform="scale(0.015625)"/>
      <path id="DejaVuSans-Bold-70" d="M 1656 506 
L 1656 -1331 
L 538 -1331 
L 538 3500 
L 1656 3500 
L 1656 2988 
Q 1888 3294 2169 3439 
Q 2450 3584 2816 3584 
Q 3463 3584 3878 3070 
Q 4294 2556 4294 1747 
Q 4294 938 3878 423 
Q 3463 -91 2816 -91 
Q 2450 -91 2169 54 
Q 1888 200 1656 506 
z
M 2400 2772 
Q 2041 2772 1848 2508 
Q 1656 2244 1656 1747 
Q 1656 1250 1848 986 
Q 2041 722 2400 722 
Q 2759 722 2948 984 
Q 3138 1247 3138 1747 
Q 3138 2247 2948 2509 
Q 2759 2772 2400 2772 
z
" transform="scale(0.015625)"/>
      <path id="DejaVuSans-Bold-63" d="M 3366 3391 
L 3366 2478 
Q 3138 2634 2908 2709 
Q 2678 2784 2431 2784 
Q 1963 2784 1702 2511 
Q 1441 2238 1441 1747 
Q 1441 1256 1702 982 
Q 1963 709 2431 709 
Q 2694 709 2930 787 
Q 3166 866 3366 1019 
L 3366 103 
Q 3103 6 2833 -42 
Q 2563 -91 2291 -91 
Q 1344 -91 809 395 
Q 275 881 275 1747 
Q 275 2613 809 3098 
Q 1344 3584 2291 3584 
Q 2566 3584 2833 3536 
Q 3100 3488 3366 3391 
z
" transform="scale(0.015625)"/>
      <path id="DejaVuSans-Bold-28" d="M 2413 -844 
L 1484 -844 
Q 1006 -72 778 623 
Q 550 1319 550 2003 
Q 550 2688 779 3389 
Q 1009 4091 1484 4856 
L 2413 4856 
Q 2013 4116 1813 3408 
Q 1613 2700 1613 2009 
Q 1613 1319 1811 609 
Q 2009 -100 2413 -844 
z
" transform="scale(0.015625)"/>
      <path id="DejaVuSans-Bold-43" d="M 4288 256 
Q 3956 84 3597 -3 
Q 3238 -91 2847 -91 
Q 1681 -91 1000 561 
Q 319 1213 319 2328 
Q 319 3447 1000 4098 
Q 1681 4750 2847 4750 
Q 3238 4750 3597 4662 
Q 3956 4575 4288 4403 
L 4288 3438 
Q 3953 3666 3628 3772 
Q 3303 3878 2944 3878 
Q 2300 3878 1931 3465 
Q 1563 3053 1563 2328 
Q 1563 1606 1931 1193 
Q 2300 781 2944 781 
Q 3303 781 3628 887 
Q 3953 994 4288 1222 
L 4288 256 
z
" transform="scale(0.015625)"/>
      <path id="DejaVuSans-Bold-41" d="M 3419 850 
L 1538 850 
L 1241 0 
L 31 0 
L 1759 4666 
L 3194 4666 
L 4922 0 
L 3713 0 
L 3419 850 
z
M 1838 1716 
L 3116 1716 
L 2478 3572 
L 1838 1716 
z
" transform="scale(0.015625)"/>
      <path id="DejaVuSans-Bold-29" d="M 513 -844 
Q 913 -100 1113 609 
Q 1313 1319 1313 2009 
Q 1313 2700 1113 3408 
Q 913 4116 513 4856 
L 1441 4856 
Q 1916 4091 2145 3389 
Q 2375 2688 2375 2003 
Q 2375 1319 2147 623 
Q 1919 -72 1441 -844 
L 513 -844 
z
" transform="scale(0.015625)"/>
     </defs>
     <use xlink:href="#DejaVuSans-Bold-50"/>
     <use xlink:href="#DejaVuSans-Bold-65" transform="translate(73.291016 0)"/>
     <use xlink:href="#DejaVuSans-Bold-74" transform="translate(141.113281 0)"/>
     <use xlink:href="#DejaVuSans-Bold-20" transform="translate(188.916016 0)"/>
     <use xlink:href="#DejaVuSans-Bold-4f" transform="translate(223.730469 0)"/>
     <use xlink:href="#DejaVuSans-Bold-6e" transform="translate(308.740234 0)"/>
     <use xlink:href="#DejaVuSans-Bold-6c" transform="translate(379.931641 0)"/>
     <use xlink:href="#DejaVuSans-Bold-79" transform="translate(414.208984 0)"/>
     <use xlink:href="#DejaVuSans-Bold-20" transform="translate(479.394531 0)"/>
     <use xlink:href="#DejaVuSans-Bold-4c" transform="translate(514.208984 0)"/>
     <use xlink:href="#DejaVuSans-Bold-61" transform="translate(577.929688 0)"/>
     <use xlink:href="#DejaVuSans-Bold-74" transform="translate(645.410156 0)"/>
     <use xlink:href="#DejaVuSans-Bold-65" transform="translate(693.212891 0)"/>
     <use xlink:href="#DejaVuSans-Bold-6e" transform="translate(761.035156 0)"/>
     <use xlink:href="#DejaVuSans-Bold-74" transform="translate(832.226562 0)"/>
     <use xlink:href="#DejaVuSans-Bold-20" transform="translate(880.029297 0)"/>
     <use xlink:href="#DejaVuSans-Bold-53" transform="translate(914.84375 0)"/>
     <use xlink:href="#DejaVuSans-Bold-70" transform="translate(986.865234 0)"/>
     <use xlink:href="#DejaVuSans-Bold-61" transform="translate(1058.447266 0)"/>
     <use xlink:href="#DejaVuSans-Bold-63" transform="translate(1125.927734 0)"/>
     <use xlink:href="#DejaVuSans-Bold-65" transform="translate(1185.205078 0)"/>
     <use xlink:href="#DejaVuSans-Bold-20" transform="translate(1253.027344 0)"/>
     <use xlink:href="#DejaVuSans-Bold-28" transform="translate(1287.841797 0)"/>
     <use xlink:href="#DejaVuSans-Bold-50" transform="translate(1333.544922 0)"/>
     <use xlink:href="#DejaVuSans-Bold-43" transform="translate(1406.835938 0)"/>
     <use xlink:href="#DejaVuSans-Bold-41" transform="translate(1480.224609 0)"/>
     <use xlink:href="#DejaVuSans-Bold-29" transform="translate(1557.617188 0)"/>
    </g>
   </g>
   <g id="PathCollection_1">
    <defs>
     <path id="m11ee56b884" d="M 0 5.700877 
C 1.51189 5.700877 2.962061 5.100197 4.031129 4.031129 
C 5.100197 2.962061 5.700877 1.51189 5.700877 0 
C 5.700877 -1.51189 5.100197 -2.962061 4.031129 -4.031129 
C 2.962061 -5.100197 1.51189 -5.700877 0 -5.700877 
C -1.51189 -5.700877 -2.962061 -5.100197 -4.031129 -4.031129 
C -5.100197 -2.962061 -5.700877 -1.51189 -5.700877 0 
C -5.700877 1.51189 -5.100197 2.962061 -4.031129 4.031129 
C -2.962061 5.100197 -1.51189 5.700877 0 5.700877 
z
" style="stroke: #ffffff; stroke-opacity: 0.92"/>
    </defs>
    <g clip-path="url(#p53cc302d90)">
     <use xlink:href="#m11ee56b884" x="243.855647" y="419.540408" style="fill: #2563eb; fill-opacity: 0.92; stroke: #ffffff; stroke-opacity: 0.92"/>
     <use xlink:href="#m11ee56b884" x="403.324305" y="157.058363" style="fill: #2563eb; fill-opacity: 0.92; stroke: #ffffff; stroke-opacity: 0.92"/>
     <use xlink:href="#m11ee56b884" x="381.996077" y="303.319842" style="fill: #2563eb; fill-opacity: 0.92; stroke: #ffffff; stroke-opacity: 0.92"/>
     <use xlink:href="#m11ee56b884" x="204.723686" y="157.678125" style="fill: #2563eb; fill-opacity: 0.92; stroke: #ffffff; stroke-opacity: 0.92"/>
     <use xlink:href="#m11ee56b884" x="172.164324" y="368.335738" style="fill: #2563eb; fill-opacity: 0.92; stroke: #ffffff; stroke-opacity: 0.92"/>
     <use xlink:href="#m11ee56b884" x="248.467446" y="372.257149" style="fill: #2563eb; fill-opacity: 0.92; stroke: #ffffff; stroke-opacity: 0.92"/>
     <use xlink:href="#m11ee56b884" x="223.782381" y="149.971821" style="fill: #2563eb; fill-opacity: 0.92; stroke: #ffffff; stroke-opacity: 0.92"/>
     <use xlink:href="#m11ee56b884" x="242.847205" y="373.291783" style="fill: #2563eb; fill-opacity: 0.92; stroke: #ffffff; stroke-opacity: 0.92"/>
     <use xlink:href="#m11ee56b884" x="162.944697" y="62.777063" style="fill: #2563eb; fill-opacity: 0.92; stroke: #ffffff; stroke-opacity: 0.92"/>
     <use xlink:href="#m11ee56b884" x="395.868091" y="221.301131" style="fill: #2563eb; fill-opacity: 0.92; stroke: #ffffff; stroke-opacity: 0.92"/>
     <use xlink:href="#m11ee56b884" x="304.65139" y="403.715431" style="fill: #2563eb; fill-opacity: 0.92; stroke: #ffffff; stroke-opacity: 0.92"/>
     <use xlink:href="#m11ee56b884" x="384.447869" y="60.613415" style="fill: #2563eb; fill-opacity: 0.92; stroke: #ffffff; stroke-opacity: 0.92"/>
     <use xlink:href="#m11ee56b884" x="313.405228" y="217.965823" style="fill: #2563eb; fill-opacity: 0.92; stroke: #ffffff; stroke-opacity: 0.92"/>
     <use xlink:href="#m11ee56b884" x="258.456656" y="297.883417" style="fill: #2563eb; fill-opacity: 0.92; stroke: #ffffff; stroke-opacity: 0.92"/>
    </g>
   </g>
   <g id="PathCollection_2">
    <defs>
     <path id="med876990c4" d="M 0 5.700877 
C 1.51189 5.700877 2.962061 5.100197 4.031129 4.031129 
C 5.100197 2.962061 5.700877 1.51189 5.700877 0 
C 5.700877 -1.51189 5.100197 -2.962061 4.031129 -4.031129 
C 2.962061 -5.100197 1.51189 -5.700877 0 -5.700877 
C -1.51189 -5.700877 -2.962061 -5.100197 -4.031129 -4.031129 
C -5.100197 -2.962061 -5.700877 -1.51189 -5.700877 0 
C -5.700877 1.51189 -5.100197 2.962061 -4.031129 4.031129 
C -2.962061 5.100197 -1.51189 5.700877 0 5.700877 
z
" style="stroke: #ffffff; stroke-opacity: 0.92"/>
    </defs>
    <g clip-path="url(#p53cc302d90)">
     <use xlink:href="#med876990c4" x="172.645466" y="285.751783" style="fill: #d97706; fill-opacity: 0.92; stroke: #ffffff; stroke-opacity: 0.92"/>
     <use xlink:href="#med876990c4" x="338.99425" y="425.581662" style="fill: #d97706; fill-opacity: 0.92; stroke: #ffffff; stroke-opacity: 0.92"/>
     <use xlink:href="#med876990c4" x="219.480106" y="192.418513" style="fill: #d97706; fill-opacity: 0.92; stroke: #ffffff; stroke-opacity: 0.92"/>
     <use xlink:href="#med876990c4" x="73.452645" y="108.388895" style="fill: #d97706; fill-opacity: 0.92; stroke: #ffffff; stroke-opacity: 0.92"/>
     <use xlink:href="#med876990c4" x="323.201368" y="123.294769" style="fill: #d97706; fill-opacity: 0.92; stroke: #ffffff; stroke-opacity: 0.92"/>
    </g>
   </g>
   <g id="PathCollection_3">
    <defs>
     <path id="m0243b1556f" d="M 0 5.700877 
C 1.51189 5.700877 2.962061 5.100197 4.031129 4.031129 
C 5.100197 2.962061 5.700877 1.51189 5.700877 0 
C 5.700877 -1.51189 5.100197 -2.962061 4.031129 -4.031129 
C 2.962061 -5.100197 1.51189 -5.700877 0 -5.700877 
C -1.51189 -5.700877 -2.962061 -5.100197 -4.031129 -4.031129 
C -5.100197 -2.962061 -5.700877 -1.51189 -5.700877 0 
C -5.700877 1.51189 -5.100197 2.962061 -4.031129 4.031129 
C -2.962061 5.100197 -1.51189 5.700877 0 5.700877 
z
" style="stroke: #ffffff; stroke-opacity: 0.92"/>
    </defs>
    <g clip-path="url(#p53cc302d90)">
     <use xlink:href="#m0243b1556f" x="366.248225" y="111.3849" style="fill: #dc2626; fill-opacity: 0.92; stroke: #ffffff; stroke-opacity: 0.92"/>
    </g>
   </g>
   <g id="legend_1">
    <g id="text_21">
     <!-- Clinical Label -->
     <g style="fill: #262626" transform="translate(436.075064 55.475625) scale(0.11 -0.11)">
      <defs>
       <path id="DejaVuSans-4c" d="M 628 4666 
L 1259 4666 
L 1259 531 
L 3531 531 
L 3531 0 
L 628 0 
L 628 4666 
z
" transform="scale(0.015625)"/>
      </defs>
      <use xlink:href="#DejaVuSans-43"/>
      <use xlink:href="#DejaVuSans-6c" transform="translate(69.824219 0)"/>
      <use xlink:href="#DejaVuSans-69" transform="translate(97.607422 0)"/>
      <use xlink:href="#DejaVuSans-6e" transform="translate(125.390625 0)"/>
      <use xlink:href="#DejaVuSans-69" transform="translate(188.769531 0)"/>
      <use xlink:href="#DejaVuSans-63" transform="translate(216.552734 0)"/>
      <use xlink:href="#DejaVuSans-61" transform="translate(271.533203 0)"/>
      <use xlink:href="#DejaVuSans-6c" transform="translate(332.8125 0)"/>
      <use xlink:href="#DejaVuSans-20" transform="translate(360.595703 0)"/>
      <use xlink:href="#DejaVuSans-4c" transform="translate(392.382812 0)"/>
      <use xlink:href="#DejaVuSans-61" transform="translate(448.095703 0)"/>
      <use xlink:href="#DejaVuSans-62" transform="translate(509.375 0)"/>
      <use xlink:href="#DejaVuSans-65" transform="translate(572.851562 0)"/>
      <use xlink:href="#DejaVuSans-6c" transform="translate(634.375 0)"/>
     </g>
    </g>
    <g id="PathCollection_4">
     <g>
      <use xlink:href="#m11ee56b884" x="450.423423" y="67.736719" style="fill: #2563eb; fill-opacity: 0.92; stroke: #ffffff; stroke-opacity: 0.92"/>
     </g>
    </g>
    <g id="text_22">
     <!-- Control -->
     <g style="fill: #262626" transform="translate(468.423423 70.361719) scale(0.1 -0.1)">
      <use xlink:href="#DejaVuSans-43"/>
      <use xlink:href="#DejaVuSans-6f" transform="translate(69.824219 0)"/>
      <use xlink:href="#DejaVuSans-6e" transform="translate(131.005859 0)"/>
      <use xlink:href="#DejaVuSans-74" transform="translate(194.384766 0)"/>
      <use xlink:href="#DejaVuSans-72" transform="translate(233.59375 0)"/>
      <use xlink:href="#DejaVuSans-6f" transform="translate(272.457031 0)"/>
      <use xlink:href="#DejaVuSans-6c" transform="translate(333.638672 0)"/>
     </g>
    </g>
    <g id="PathCollection_5">
     <g>
      <use xlink:href="#med876990c4" x="450.423423" y="82.414844" style="fill: #d97706; fill-opacity: 0.92; stroke: #ffffff; stroke-opacity: 0.92"/>
     </g>
    </g>
    <g id="text_23">
     <!-- MCI -->
     <g style="fill: #262626" transform="translate(468.423423 85.039844) scale(0.1 -0.1)">
      <defs>
       <path id="DejaVuSans-4d" d="M 628 4666 
L 1569 4666 
L 2759 1491 
L 3956 4666 
L 4897 4666 
L 4897 0 
L 4281 0 
L 4281 4097 
L 3078 897 
L 2444 897 
L 1241 4097 
L 1241 0 
L 628 0 
L 628 4666 
z
" transform="scale(0.015625)"/>
       <path id="DejaVuSans-49" d="M 628 4666 
L 1259 4666 
L 1259 0 
L 628 0 
L 628 4666 
z
" transform="scale(0.015625)"/>
      </defs>
      <use xlink:href="#DejaVuSans-4d"/>
      <use xlink:href="#DejaVuSans-43" transform="translate(86.279297 0)"/>
      <use xlink:href="#DejaVuSans-49" transform="translate(156.103516 0)"/>
     </g>
    </g>
    <g id="PathCollection_6">
     <g>
      <use xlink:href="#m0243b1556f" x="450.423423" y="97.092969" style="fill: #dc2626; fill-opacity: 0.92; stroke: #ffffff; stroke-opacity: 0.92"/>
     </g>
    </g>
    <g id="text_24">
     <!-- AD -->
     <g style="fill: #262626" transform="translate(468.423423 99.717969) scale(0.1 -0.1)">
      <defs>
       <path id="DejaVuSans-41" d="M 2188 4044 
L 1331 1722 
L 3047 1722 
L 2188 4044 
z
M 1831 4666 
L 2547 4666 
L 4325 0 
L 3669 0 
L 3244 1197 
L 1141 1197 
L 716 0 
L 50 0 
L 1831 4666 
z
" transform="scale(0.015625)"/>
       <path id="DejaVuSans-44" d="M 1259 4147 
L 1259 519 
L 2022 519 
Q 2988 519 3436 956 
Q 3884 1394 3884 2338 
Q 3884 3275 3436 3711 
Q 2988 4147 2022 4147 
L 1259 4147 
z
M 628 4666 
L 1925 4666 
Q 3281 4666 3915 4102 
Q 4550 3538 4550 2338 
Q 4550 1131 3912 565 
Q 3275 0 1925 0 
L 628 0 
L 628 4666 
z
" transform="scale(0.015625)"/>
      </defs>
      <use xlink:href="#DejaVuSans-41"/>
      <use xlink:href="#DejaVuSans-44" transform="translate(68.408203 0)"/>
     </g>
    </g>
   </g>
  </g>
 </g>
 <defs>
  <clipPath id="p53cc302d90">
   <rect x="56.959063" y="38.117344" width="362.858825" height="405.915"/>
  </clipPath>
 </defs>
</svg>
