<?xml version="1.0" encoding="utf-8" standalone="no"?>
<!DOCTYPE svg PUBLIC "-//W3C//DTD SVG 1.1//EN"
  "http://www.w3.org/Graphics/SVG/1.1/DTD/svg11.dtd">
<svg xmlns:xlink="http://www.w3.org/1999/xlink" width="520.327095pt" height="480.024219pt" viewBox="0 0 520.327095 480.024219" xmlns="http://www.w3.org/2000/svg" version="1.1">
 <metadata>
  <rdf:RDF xmlns:dc="http://purl.org/dc/elements/1.1/" xmlns:cc="http://creativecommons.org/ns#" xmlns:rdf="http://www.w3.org/1999/02/22-rdf-syntax-ns#">
   <cc:Work>
    <dc:type rdf:resource="http://purl.org/dc/dcmitype/StillImage"/>
    <dc:date>2026-05-06T14:59:36.677162</dc:date>
    <dc:format>image/svg+xml</dc:format>
    <dc:creator>
     <cc:Agent>
      <dc:title>Matplotlib v3.10.9, https://matplotlib.org/</dc:title>
     </cc:Agent>
    </dc:creator>
   </cc:Work>
  </rdf:RDF>
 </metadata>
 <defs>
  <style type="text/css">*{stroke-linejoin: round; stroke-linecap: butt}</style>
 </defs>
 <g id="figure_1">
  <g id="patch_1">
   <path d="M 0 480.024219 
L 520.327095 480.024219 
L 520.327095 0 
L 0 0 
z
" style="fill: #ffffff"/>
  </g>
  <g id="axes_1">
   <g id="patch_2">
    <path d="M 47.418438 444.032344 
L 419.839762 444.032344 
L 419.839762 38.117344 
L 47.418438 38.117344 
z
" style="fill: #fcfcfd"/>
   </g>
   <g id="matplotlib.axis_1">
    <g id="xtick_1">
     <g id="line2d_1">
      <path d="M 82.278398 444.032344 
L 82.278398 38.117344 
" clip-path="url(#p83401989b4)" style="fill: none; stroke: #cccccc; stroke-opacity: 0.12; stroke-width: 0.8; stroke-linecap: round"/>
     </g>
     <g id="line2d_2"/>
     <g id="text_1">
      <!-- −60 -->
      <g style="fill: #262626" transform="translate(71.726055 455.130781) scale(0.1 -0.1)">
       <defs>
        <path id="DejaVuSans-2212" d="M 678 2272 
L 4684 2272 
L 4684 1741 
L 678 1741 
L 678 2272 
z
" transform="scale(0.015625)"/>
        <path id="DejaVuSans-36" d="M 2113 2584 
Q 1688 2584 1439 2293 
Q 1191 2003 1191 1497 
Q 1191 994 1439 701 
Q 1688 409 2113 409 
Q 2538 409 2786 701 
Q 3034 994 3034 1497 
Q 3034 2003 2786 2293 
Q 2538 2584 2113 2584 
z
M 3366 4563 
L 3366 3988 
Q 3128 4100 2886 4159 
Q 2644 4219 2406 4219 
Q 1781 4219 1451 3797 
Q 1122 3375 1075 2522 
Q 1259 2794 1537 2939 
Q 1816 3084 2150 3084 
Q 2853 3084 3261 2657 
Q 3669 2231 3669 1497 
Q 3669 778 3244 343 
Q 2819 -91 2113 -91 
Q 1303 -91 875 529 
Q 447 1150 447 2328 
Q 447 3434 972 4092 
Q 1497 4750 2381 4750 
Q 2619 4750 2861 4703 
Q 3103 4656 3366 4563 
z
" transform="scale(0.015625)"/>
        <path id="DejaVuSans-30" d="M 2034 4250 
Q 1547 4250 1301 3770 
Q 1056 3291 1056 2328 
Q 1056 1369 1301 889 
Q 1547 409 2034 409 
Q 2525 409 2770 889 
Q 3016 1369 3016 2328 
Q 3016 3291 2770 3770 
Q 2525 4250 2034 4250 
z
M 2034 4750 
Q 2819 4750 3233 4129 
Q 3647 3509 3647 2328 
Q 3647 1150 3233 529 
Q 2819 -91 2034 -91 
Q 1250 -91 836 529 
Q 422 1150 422 2328 
Q 422 3509 836 4129 
Q 1250 4750 2034 4750 
z
" transform="scale(0.015625)"/>
       </defs>
       <use xlink:href="#DejaVuSans-2212"/>
       <use xlink:href="#DejaVuSans-36" transform="translate(83.789062 0)"/>
       <use xlink:href="#DejaVuSans-30" transform="translate(147.412109 0)"/>
      </g>
     </g>
    </g>
    <g id="xtick_2">
     <g id="line2d_3">
      <path d="M 135.718314 444.032344 
L 135.718314 38.117344 
" clip-path="url(#p83401989b4)" style="fill: none; stroke: #cccccc; stroke-opacity: 0.12; stroke-width: 0.8; stroke-linecap: round"/>
     </g>
     <g id="line2d_4"/>
     <g id="text_2">
      <!-- −40 -->
      <g style="fill: #262626" transform="translate(125.16597 455.130781) scale(0.1 -0.1)">
       <defs>
        <path id="DejaVuSans-34" d="M 2419 4116 
L 825 1625 
L 2419 1625 
L 2419 4116 
z
M 2253 4666 
L 3047 4666 
L 3047 1625 
L 3713 1625 
L 3713 1100 
L 3047 1100 
L 3047 0 
L 2419 0 
L 2419 1100 
L 313 1100 
L 313 1709 
L 2253 4666 
z
" transform="scale(0.015625)"/>
       </defs>
       <use xlink:href="#DejaVuSans-2212"/>
       <use xlink:href="#DejaVuSans-34" transform="translate(83.789062 0)"/>
       <use xlink:href="#DejaVuSans-30" transform="translate(147.412109 0)"/>
      </g>
     </g>
    </g>
    <g id="xtick_3">
     <g id="line2d_5">
      <path d="M 189.158229 444.032344 
L 189.158229 38.117344 
" clip-path="url(#p83401989b4)" style="fill: none; stroke: #cccccc; stroke-opacity: 0.12; stroke-width: 0.8; stroke-linecap: round"/>
     </g>
     <g id="line2d_6"/>
     <g id="text_3">
      <!-- −20 -->
      <g style="fill: #262626" transform="translate(178.605885 455.130781) scale(0.1 -0.1)">
       <defs>
        <path id="DejaVuSans-32" d="M 1228 531 
L 3431 531 
L 3431 0 
L 469 0 
L 469 531 
Q 828 903 1448 1529 
Q 2069 2156 2228 2338 
Q 2531 2678 2651 2914 
Q 2772 3150 2772 3378 
Q 2772 3750 2511 3984 
Q 2250 4219 1831 4219 
Q 1534 4219 1204 4116 
Q 875 4013 500 3803 
L 500 4441 
Q 881 4594 1212 4672 
Q 1544 4750 1819 4750 
Q 2544 4750 2975 4387 
Q 3406 4025 3406 3419 
Q 3406 3131 3298 2873 
Q 3191 2616 2906 2266 
Q 2828 2175 2409 1742 
Q 1991 1309 1228 531 
z
" transform="scale(0.015625)"/>
       </defs>
       <use xlink:href="#DejaVuSans-2212"/>
       <use xlink:href="#DejaVuSans-32" transform="translate(83.789062 0)"/>
       <use xlink:href="#DejaVuSans-30" transform="translate(147.412109 0)"/>
      </g>
     </g>
    </g>
    <g id="xtick_4">
     <g id="line2d_7">
      <path d="M 242.598145 444.032344 
L 242.598145 38.117344 
" clip-path="url(#p83401989b4)" style="fill: none; stroke: #cccccc; stroke-opacity: 0.12; stroke-width: 0.8; stroke-linecap: round"/>
     </g>
     <g id="line2d_8"/>
     <g id="text_4">
      <!-- 0 -->
      <g style="fill: #262626" transform="translate(239.416895 455.130781) scale(0.1 -0.1)">
       <use xlink:href="#DejaVuSans-30"/>
      </g>
     </g>
    </g>
    <g id="xtick_5">
     <g id="line2d_9">
      <path d="M 296.03806 444.032344 
L 296.03806 38.117344 
" clip-path="url(#p83401989b4)" style="fill: none; stroke: #cccccc; stroke-opacity: 0.12; stroke-width: 0.8; stroke-linecap: round"/>
     </g>
     <g id="line2d_10"/>
     <g id="text_5">
      <!-- 20 -->
      <g style="fill: #262626" transform="translate(289.67556 455.130781) scale(0.1 -0.1)">
       <use xlink:href="#DejaVuSans-32"/>
       <use xlink:href="#DejaVuSans-30" transform="translate(63.623047 0)"/>
      </g>
     </g>
    </g>
    <g id="xtick_6">
     <g id="line2d_11">
      <path d="M 349.477975 444.032344 
L 349.477975 38.117344 
" clip-path="url(#p83401989b4)" style="fill: none; stroke: #cccccc; stroke-opacity: 0.12; stroke-width: 0.8; stroke-linecap: round"/>
     </g>
     <g id="line2d_12"/>
     <g id="text_6">
      <!-- 40 -->
      <g style="fill: #262626" transform="translate(343.115475 455.130781) scale(0.1 -0.1)">
       <use xlink:href="#DejaVuSans-34"/>
       <use xlink:href="#DejaVuSans-30" transform="translate(63.623047 0)"/>
      </g>
     </g>
    </g>
    <g id="xtick_7">
     <g id="line2d_13">
      <path d="M 402.917891 444.032344 
L 402.917891 38.117344 
" clip-path="url(#p83401989b4)" style="fill: none; stroke: #cccccc; stroke-opacity: 0.12; stroke-width: 0.8; stroke-linecap: round"/>
     </g>
     <g id="line2d_14"/>
     <g id="text_7">
      <!-- 60 -->
      <g style="fill: #262626" transform="translate(396.555391 455.130781) scale(0.1 -0.1)">
       <use xlink:href="#DejaVuSans-36"/>
       <use xlink:href="#DejaVuSans-30" transform="translate(63.623047 0)"/>
      </g>
     </g>
    </g>
    <g id="text_8">
     <!-- t-SNE 1 -->
     <g style="fill: #262626" transform="translate(211.298788 470.328594) scale(0.12 -0.12)">
      <defs>
       <path id="DejaVuSans-74" d="M 1172 4494 
L 1172 3500 
L 2356 3500 
L 2356 3053 
L 1172 3053 
L 1172 1153 
Q 1172 725 1289 603 
Q 1406 481 1766 481 
L 2356 481 
L 2356 0 
L 1766 0 
Q 1100 0 847 248 
Q 594 497 594 1153 
L 594 3053 
L 172 3053 
L 172 3500 
L 594 3500 
L 594 4494 
L 1172 4494 
z
" transform="scale(0.015625)"/>
       <path id="DejaVuSans-2d" d="M 313 2009 
L 1997 2009 
L 1997 1497 
L 313 1497 
L 313 2009 
z
" transform="scale(0.015625)"/>
       <path id="DejaVuSans-53" d="M 3425 4513 
L 3425 3897 
Q 3066 4069 2747 4153 
Q 2428 4238 2131 4238 
Q 1616 4238 1336 4038 
Q 1056 3838 1056 3469 
Q 1056 3159 1242 3001 
Q 1428 2844 1947 2747 
L 2328 2669 
Q 3034 2534 3370 2195 
Q 3706 1856 3706 1288 
Q 3706 609 3251 259 
Q 2797 -91 1919 -91 
Q 1588 -91 1214 -16 
Q 841 59 441 206 
L 441 856 
Q 825 641 1194 531 
Q 1563 422 1919 422 
Q 2459 422 2753 634 
Q 3047 847 3047 1241 
Q 3047 1584 2836 1778 
Q 2625 1972 2144 2069 
L 1759 2144 
Q 1053 2284 737 2584 
Q 422 2884 422 3419 
Q 422 4038 858 4394 
Q 1294 4750 2059 4750 
Q 2388 4750 2728 4690 
Q 3069 4631 3425 4513 
z
" transform="scale(0.015625)"/>
       <path id="DejaVuSans-4e" d="M 628 4666 
L 1478 4666 
L 3547 763 
L 3547 4666 
L 4159 4666 
L 4159 0 
L 3309 0 
L 1241 3903 
L 1241 0 
L 628 0 
L 628 4666 
z
" transform="scale(0.015625)"/>
       <path id="DejaVuSans-45" d="M 628 4666 
L 3578 4666 
L 3578 4134 
L 1259 4134 
L 1259 2753 
L 3481 2753 
L 3481 2222 
L 1259 2222 
L 1259 531 
L 3634 531 
L 3634 0 
L 628 0 
L 628 4666 
z
" transform="scale(0.015625)"/>
       <path id="DejaVuSans-20" transform="scale(0.015625)"/>
       <path id="DejaVuSans-31" d="M 794 531 
L 1825 531 
L 1825 4091 
L 703 3866 
L 703 4441 
L 1819 4666 
L 2450 4666 
L 2450 531 
L 3481 531 
L 3481 0 
L 794 0 
L 794 531 
z
" transform="scale(0.015625)"/>
      </defs>
      <use xlink:href="#DejaVuSans-74"/>
      <use xlink:href="#DejaVuSans-2d" transform="translate(39.208984 0)"/>
      <use xlink:href="#DejaVuSans-53" transform="translate(75.292969 0)"/>
      <use xlink:href="#DejaVuSans-4e" transform="translate(138.769531 0)"/>
      <use xlink:href="#DejaVuSans-45" transform="translate(213.574219 0)"/>
      <use xlink:href="#DejaVuSans-20" transform="translate(276.757812 0)"/>
      <use xlink:href="#DejaVuSans-31" transform="translate(308.544922 0)"/>
     </g>
    </g>
   </g>
   <g id="matplotlib.axis_2">
    <g id="ytick_1">
     <g id="line2d_15">
      <path d="M 47.418438 412.850462 
L 419.839762 412.850462 
" clip-path="url(#p83401989b4)" style="fill: none; stroke: #cccccc; stroke-opacity: 0.12; stroke-width: 0.8; stroke-linecap: round"/>
     </g>
     <g id="line2d_16"/>
     <g id="text_9">
      <!-- −10 -->
      <g style="fill: #262626" transform="translate(22.81375 416.649681) scale(0.1 -0.1)">
       <use xlink:href="#DejaVuSans-2212"/>
       <use xlink:href="#DejaVuSans-31" transform="translate(83.789062 0)"/>
       <use xlink:href="#DejaVuSans-30" transform="translate(147.412109 0)"/>
      </g>
     </g>
    </g>
    <g id="ytick_2">
     <g id="line2d_17">
      <path d="M 47.418438 362.236479 
L 419.839762 362.236479 
" clip-path="url(#p83401989b4)" style="fill: none; stroke: #cccccc; stroke-opacity: 0.12; stroke-width: 0.8; stroke-linecap: round"/>
     </g>
     <g id="line2d_18"/>
     <g id="text_10">
      <!-- 0 -->
      <g style="fill: #262626" transform="translate(37.555937 366.035697) scale(0.1 -0.1)">
       <use xlink:href="#DejaVuSans-30"/>
      </g>
     </g>
    </g>
    <g id="ytick_3">
     <g id="line2d_19">
      <path d="M 47.418438 311.622495 
L 419.839762 311.622495 
" clip-path="url(#p83401989b4)" style="fill: none; stroke: #cccccc; stroke-opacity: 0.12; stroke-width: 0.8; stroke-linecap: round"/>
     </g>
     <g id="line2d_20"/>
     <g id="text_11">
      <!-- 10 -->
      <g style="fill: #262626" transform="translate(31.193438 315.421714) scale(0.1 -0.1)">
       <use xlink:href="#DejaVuSans-31"/>
       <use xlink:href="#DejaVuSans-30" transform="translate(63.623047 0)"/>
      </g>
     </g>
    </g>
    <g id="ytick_4">
     <g id="line2d_21">
      <path d="M 47.418438 261.008512 
L 419.839762 261.008512 
" clip-path="url(#p83401989b4)" style="fill: none; stroke: #cccccc; stroke-opacity: 0.12; stroke-width: 0.8; stroke-linecap: round"/>
     </g>
     <g id="line2d_22"/>
     <g id="text_12">
      <!-- 20 -->
      <g style="fill: #262626" transform="translate(31.193438 264.807731) scale(0.1 -0.1)">
       <use xlink:href="#DejaVuSans-32"/>
       <use xlink:href="#DejaVuSans-30" transform="translate(63.623047 0)"/>
      </g>
     </g>
    </g>
    <g id="ytick_5">
     <g id="line2d_23">
      <path d="M 47.418438 210.394529 
L 419.839762 210.394529 
" clip-path="url(#p83401989b4)" style="fill: none; stroke: #cccccc; stroke-opacity: 0.12; stroke-width: 0.8; stroke-linecap: round"/>
     </g>
     <g id="line2d_24"/>
     <g id="text_13">
      <!-- 30 -->
      <g style="fill: #262626" transform="translate(31.193438 214.193747) scale(0.1 -0.1)">
       <defs>
        <path id="DejaVuSans-33" d="M 2597 2516 
Q 3050 2419 3304 2112 
Q 3559 1806 3559 1356 
Q 3559 666 3084 287 
Q 2609 -91 1734 -91 
Q 1441 -91 1130 -33 
Q 819 25 488 141 
L 488 750 
Q 750 597 1062 519 
Q 1375 441 1716 441 
Q 2309 441 2620 675 
Q 2931 909 2931 1356 
Q 2931 1769 2642 2001 
Q 2353 2234 1838 2234 
L 1294 2234 
L 1294 2753 
L 1863 2753 
Q 2328 2753 2575 2939 
Q 2822 3125 2822 3475 
Q 2822 3834 2567 4026 
Q 2313 4219 1838 4219 
Q 1578 4219 1281 4162 
Q 984 4106 628 3988 
L 628 4550 
Q 988 4650 1302 4700 
Q 1616 4750 1894 4750 
Q 2613 4750 3031 4423 
Q 3450 4097 3450 3541 
Q 3450 3153 3228 2886 
Q 3006 2619 2597 2516 
z
" transform="scale(0.015625)"/>
       </defs>
       <use xlink:href="#DejaVuSans-33"/>
       <use xlink:href="#DejaVuSans-30" transform="translate(63.623047 0)"/>
      </g>
     </g>
    </g>
    <g id="ytick_6">
     <g id="line2d_25">
      <path d="M 47.418438 159.780545 
L 419.839762 159.780545 
" clip-path="url(#p83401989b4)" style="fill: none; stroke: #cccccc; stroke-opacity: 0.12; stroke-width: 0.8; stroke-linecap: round"/>
     </g>
     <g id="line2d_26"/>
     <g id="text_14">
      <!-- 40 -->
      <g style="fill: #262626" transform="translate(31.193438 163.579764) scale(0.1 -0.1)">
       <use xlink:href="#DejaVuSans-34"/>
       <use xlink:href="#DejaVuSans-30" transform="translate(63.623047 0)"/>
      </g>
     </g>
    </g>
    <g id="ytick_7">
     <g id="line2d_27">
      <path d="M 47.418438 109.166562 
L 419.839762 109.166562 
" clip-path="url(#p83401989b4)" style="fill: none; stroke: #cccccc; stroke-opacity: 0.12; stroke-width: 0.8; stroke-linecap: round"/>
     </g>
     <g id="line2d_28"/>
     <g id="text_15">
      <!-- 50 -->
      <g style="fill: #262626" transform="translate(31.193438 112.965781) scale(0.1 -0.1)">
       <defs>
        <path id="DejaVuSans-35" d="M 691 4666 
L 3169 4666 
L 3169 4134 
L 1269 4134 
L 1269 2991 
Q 1406 3038 1543 3061 
Q 1681 3084 1819 3084 
Q 2600 3084 3056 2656 
Q 3513 2228 3513 1497 
Q 3513 744 3044 326 
Q 2575 -91 1722 -91 
Q 1428 -91 1123 -41 
Q 819 9 494 109 
L 494 744 
Q 775 591 1075 516 
Q 1375 441 1709 441 
Q 2250 441 2565 725 
Q 2881 1009 2881 1497 
Q 2881 1984 2565 2268 
Q 2250 2553 1709 2553 
Q 1456 2553 1204 2497 
Q 953 2441 691 2322 
L 691 4666 
z
" transform="scale(0.015625)"/>
       </defs>
       <use xlink:href="#DejaVuSans-35"/>
       <use xlink:href="#DejaVuSans-30" transform="translate(63.623047 0)"/>
      </g>
     </g>
    </g>
    <g id="ytick_8">
     <g id="line2d_29">
      <path d="M 47.418438 58.552579 
L 419.839762 58.552579 
" clip-path="url(#p83401989b4)" style="fill: none; stroke: #cccccc; stroke-opacity: 0.12; stroke-width: 0.8; stroke-linecap: round"/>
     </g>
     <g id="line2d_30"/>
     <g id="text_16">
      <!-- 60 -->
      <g style="fill: #262626" transform="translate(31.193438 62.351797) scale(0.1 -0.1)">
       <use xlink:href="#DejaVuSans-36"/>
       <use xlink:href="#DejaVuSans-30" transform="translate(63.623047 0)"/>
      </g>
     </g>
    </g>
    <g id="text_17">
     <!-- t-SNE 2 -->
     <g style="fill: #262626" transform="translate(16.318125 263.405156) rotate(-90) scale(0.12 -0.12)">
      <use xlink:href="#DejaVuSans-74"/>
      <use xlink:href="#DejaVuSans-2d" transform="translate(39.208984 0)"/>
      <use xlink:href="#DejaVuSans-53" transform="translate(75.292969 0)"/>
      <use xlink:href="#DejaVuSans-4e" transform="translate(138.769531 0)"/>
      <use xlink:href="#DejaVuSans-45" transform="translate(213.574219 0)"/>
      <use xlink:href="#DejaVuSans-20" transform="translate(276.757812 0)"/>
      <use xlink:href="#DejaVuSans-32" transform="translate(308.544922 0)"/>
     </g>
    </g>
   </g>
   <g id="patch_3">
    <path d="M 227.647276 342.173505 
C 191.499725 344.941313 156.889725 350.497122 131.439725 357.617329 
C 105.989725 364.737536 91.777606 372.840808 91.933421 380.142493 
C 92.089237 387.444177 106.600266 393.348125 132.270622 396.554059 
C 157.940978 399.759993 192.674791 400.006164 228.822342 397.238356 
C 264.969892 394.470547 299.579893 388.914738 325.029893 381.794531 
C 350.479893 374.674324 364.692012 366.571052 364.536197 359.269368 
C 364.380381 351.967683 349.869352 346.063735 324.198996 342.857801 
C 298.52864 339.651867 263.794827 339.405696 227.647276 342.173505 
z
" clip-path="url(#p83401989b4)" style="fill: #2563eb; opacity: 0.08; stroke: #2563eb; stroke-width: 1.4; stroke-linejoin: miter"/>
   </g>
   <g id="patch_4">
    <path d="M 242.160793 214.126794 
C 201.953123 263.058574 164.349876 312.832239 137.632732 352.485717 
C 110.915587 392.139195 97.265881 418.434956 99.689802 425.581662 
C 102.113724 432.728368 120.413371 420.142524 150.558458 390.596015 
C 180.703545 361.049506 220.23286 316.954674 260.44053 268.022894 
C 300.6482 219.091114 338.251446 169.317448 364.968591 129.66397 
C 391.685736 90.010492 405.335442 63.714732 402.91152 56.568026 
C 400.487599 49.421319 382.187952 62.007164 352.042865 91.553673 
C 321.897778 121.100182 282.368463 165.195014 242.160793 214.126794 
z
" clip-path="url(#p83401989b4)" style="fill: #d97706; opacity: 0.08; stroke: #d97706; stroke-width: 1.4; stroke-linejoin: miter"/>
   </g>
   <g id="patch_5">
    <path d="M 47.418438 444.032344 
L 47.418438 38.117344 
" style="fill: none; stroke: #262626; stroke-width: 1.25; stroke-linejoin: miter; stroke-linecap: square"/>
   </g>
   <g id="patch_6">
    <path d="M 47.418438 444.032344 
L 419.839762 444.032344 
" style="fill: none; stroke: #262626; stroke-width: 1.25; stroke-linejoin: miter; stroke-linecap: square"/>
   </g>
   <g id="text_18">
    <!-- Exploratory only - local neighborhood view on a very small cohort -->
    <g style="fill: #475569" transform="translate(47.418438 29.999044) scale(0.105 -0.105)">
     <defs>
      <path id="DejaVuSans-78" d="M 3513 3500 
L 2247 1797 
L 3578 0 
L 2900 0 
L 1881 1375 
L 863 0 
L 184 0 
L 1544 1831 
L 300 3500 
L 978 3500 
L 1906 2253 
L 2834 3500 
L 3513 3500 
z
" transform="scale(0.015625)"/>
      <path id="DejaVuSans-70" d="M 1159 525 
L 1159 -1331 
L 581 -1331 
L 581 3500 
L 1159 3500 
L 1159 2969 
Q 1341 3281 1617 3432 
Q 1894 3584 2278 3584 
Q 2916 3584 3314 3078 
Q 3713 2572 3713 1747 
Q 3713 922 3314 415 
Q 2916 -91 2278 -91 
Q 1894 -91 1617 61 
Q 1341 213 1159 525 
z
M 3116 1747 
Q 3116 2381 2855 2742 
Q 2594 3103 2138 3103 
Q 1681 3103 1420 2742 
Q 1159 2381 1159 1747 
Q 1159 1113 1420 752 
Q 1681 391 2138 391 
Q 2594 391 2855 752 
Q 3116 1113 3116 1747 
z
" transform="scale(0.015625)"/>
      <path id="DejaVuSans-6c" d="M 603 4863 
L 1178 4863 
L 1178 0 
L 603 0 
L 603 4863 
z
" transform="scale(0.015625)"/>
      <path id="DejaVuSans-6f" d="M 1959 3097 
Q 1497 3097 1228 2736 
Q 959 2375 959 1747 
Q 959 1119 1226 758 
Q 1494 397 1959 397 
Q 2419 397 2687 759 
Q 2956 1122 2956 1747 
Q 2956 2369 2687 2733 
Q 2419 3097 1959 3097 
z
M 1959 3584 
Q 2709 3584 3137 3096 
Q 3566 2609 3566 1747 
Q 3566 888 3137 398 
Q 2709 -91 1959 -91 
Q 1206 -91 779 398 
Q 353 888 353 1747 
Q 353 2609 779 3096 
Q 1206 3584 1959 3584 
z
" transform="scale(0.015625)"/>
      <path id="DejaVuSans-72" d="M 2631 2963 
Q 2534 3019 2420 3045 
Q 2306 3072 2169 3072 
Q 1681 3072 1420 2755 
Q 1159 2438 1159 1844 
L 1159 0 
L 581 0 
L 581 3500 
L 1159 3500 
L 1159 2956 
Q 1341 3275 1631 3429 
Q 1922 3584 2338 3584 
Q 2397 3584 2469 3576 
Q 2541 3569 2628 3553 
L 2631 2963 
z
" transform="scale(0.015625)"/>
      <path id="DejaVuSans-61" d="M 2194 1759 
Q 1497 1759 1228 1600 
Q 959 1441 959 1056 
Q 959 750 1161 570 
Q 1363 391 1709 391 
Q 2188 391 2477 730 
Q 2766 1069 2766 1631 
L 2766 1759 
L 2194 1759 
z
M 3341 1997 
L 3341 0 
L 2766 0 
L 2766 531 
Q 2569 213 2275 61 
Q 1981 -91 1556 -91 
Q 1019 -91 701 211 
Q 384 513 384 1019 
Q 384 1609 779 1909 
Q 1175 2209 1959 2209 
L 2766 2209 
L 2766 2266 
Q 2766 2663 2505 2880 
Q 2244 3097 1772 3097 
Q 1472 3097 1187 3025 
Q 903 2953 641 2809 
L 641 3341 
Q 956 3463 1253 3523 
Q 1550 3584 1831 3584 
Q 2591 3584 2966 3190 
Q 3341 2797 3341 1997 
z
" transform="scale(0.015625)"/>
      <path id="DejaVuSans-79" d="M 2059 -325 
Q 1816 -950 1584 -1140 
Q 1353 -1331 966 -1331 
L 506 -1331 
L 506 -850 
L 844 -850 
Q 1081 -850 1212 -737 
Q 1344 -625 1503 -206 
L 1606 56 
L 191 3500 
L 800 3500 
L 1894 763 
L 2988 3500 
L 3597 3500 
L 2059 -325 
z
" transform="scale(0.015625)"/>
      <path id="DejaVuSans-6e" d="M 3513 2113 
L 3513 0 
L 2938 0 
L 2938 2094 
Q 2938 2591 2744 2837 
Q 2550 3084 2163 3084 
Q 1697 3084 1428 2787 
Q 1159 2491 1159 1978 
L 1159 0 
L 581 0 
L 581 3500 
L 1159 3500 
L 1159 2956 
Q 1366 3272 1645 3428 
Q 1925 3584 2291 3584 
Q 2894 3584 3203 3211 
Q 3513 2838 3513 2113 
z
" transform="scale(0.015625)"/>
      <path id="DejaVuSans-63" d="M 3122 3366 
L 3122 2828 
Q 2878 2963 2633 3030 
Q 2388 3097 2138 3097 
Q 1578 3097 1268 2742 
Q 959 2388 959 1747 
Q 959 1106 1268 751 
Q 1578 397 2138 397 
Q 2388 397 2633 464 
Q 2878 531 3122 666 
L 3122 134 
Q 2881 22 2623 -34 
Q 2366 -91 2075 -91 
Q 1284 -91 818 406 
Q 353 903 353 1747 
Q 353 2603 823 3093 
Q 1294 3584 2113 3584 
Q 2378 3584 2631 3529 
Q 2884 3475 3122 3366 
z
" transform="scale(0.015625)"/>
      <path id="DejaVuSans-65" d="M 3597 1894 
L 3597 1613 
L 953 1613 
Q 991 1019 1311 708 
Q 1631 397 2203 397 
Q 2534 397 2845 478 
Q 3156 559 3463 722 
L 3463 178 
Q 3153 47 2828 -22 
Q 2503 -91 2169 -91 
Q 1331 -91 842 396 
Q 353 884 353 1716 
Q 353 2575 817 3079 
Q 1281 3584 2069 3584 
Q 2775 3584 3186 3129 
Q 3597 2675 3597 1894 
z
M 3022 2063 
Q 3016 2534 2758 2815 
Q 2500 3097 2075 3097 
Q 1594 3097 1305 2825 
Q 1016 2553 972 2059 
L 3022 2063 
z
" transform="scale(0.015625)"/>
      <path id="DejaVuSans-69" d="M 603 3500 
L 1178 3500 
L 1178 0 
L 603 0 
L 603 3500 
z
M 603 4863 
L 1178 4863 
L 1178 4134 
L 603 4134 
L 603 4863 
z
" transform="scale(0.015625)"/>
      <path id="DejaVuSans-67" d="M 2906 1791 
Q 2906 2416 2648 2759 
Q 2391 3103 1925 3103 
Q 1463 3103 1205 2759 
Q 947 2416 947 1791 
Q 947 1169 1205 825 
Q 1463 481 1925 481 
Q 2391 481 2648 825 
Q 2906 1169 2906 1791 
z
M 3481 434 
Q 3481 -459 3084 -895 
Q 2688 -1331 1869 -1331 
Q 1566 -1331 1297 -1286 
Q 1028 -1241 775 -1147 
L 775 -588 
Q 1028 -725 1275 -790 
Q 1522 -856 1778 -856 
Q 2344 -856 2625 -561 
Q 2906 -266 2906 331 
L 2906 616 
Q 2728 306 2450 153 
Q 2172 0 1784 0 
Q 1141 0 747 490 
Q 353 981 353 1791 
Q 353 2603 747 3093 
Q 1141 3584 1784 3584 
Q 2172 3584 2450 3431 
Q 2728 3278 2906 2969 
L 2906 3500 
L 3481 3500 
L 3481 434 
z
" transform="scale(0.015625)"/>
      <path id="DejaVuSans-68" d="M 3513 2113 
L 3513 0 
L 2938 0 
L 2938 2094 
Q 2938 2591 2744 2837 
Q 2550 3084 2163 3084 
Q 1697 3084 1428 2787 
Q 1159 2491 1159 1978 
L 1159 0 
L 581 0 
L 581 4863 
L 1159 4863 
L 1159 2956 
Q 1366 3272 1645 3428 
Q 1925 3584 2291 3584 
Q 2894 3584 3203 3211 
Q 3513 2838 3513 2113 
z
" transform="scale(0.015625)"/>
      <path id="DejaVuSans-62" d="M 3116 1747 
Q 3116 2381 2855 2742 
Q 2594 3103 2138 3103 
Q 1681 3103 1420 2742 
Q 1159 2381 1159 1747 
Q 1159 1113 1420 752 
Q 1681 391 2138 391 
Q 2594 391 2855 752 
Q 3116 1113 3116 1747 
z
M 1159 2969 
Q 1341 3281 1617 3432 
Q 1894 3584 2278 3584 
Q 2916 3584 3314 3078 
Q 3713 2572 3713 1747 
Q 3713 922 3314 415 
Q 2916 -91 2278 -91 
Q 1894 -91 1617 61 
Q 1341 213 1159 525 
L 1159 0 
L 581 0 
L 581 4863 
L 1159 4863 
L 1159 2969 
z
" transform="scale(0.015625)"/>
      <path id="DejaVuSans-64" d="M 2906 2969 
L 2906 4863 
L 3481 4863 
L 3481 0 
L 2906 0 
L 2906 525 
Q 2725 213 2448 61 
Q 2172 -91 1784 -91 
Q 1150 -91 751 415 
Q 353 922 353 1747 
Q 353 2572 751 3078 
Q 1150 3584 1784 3584 
Q 2172 3584 2448 3432 
Q 2725 3281 2906 2969 
z
M 947 1747 
Q 947 1113 1208 752 
Q 1469 391 1925 391 
Q 2381 391 2643 752 
Q 2906 1113 2906 1747 
Q 2906 2381 2643 2742 
Q 2381 3103 1925 3103 
Q 1469 3103 1208 2742 
Q 947 2381 947 1747 
z
" transform="scale(0.015625)"/>
      <path id="DejaVuSans-76" d="M 191 3500 
L 800 3500 
L 1894 563 
L 2988 3500 
L 3597 3500 
L 2284 0 
L 1503 0 
L 191 3500 
z
" transform="scale(0.015625)"/>
      <path id="DejaVuSans-77" d="M 269 3500 
L 844 3500 
L 1563 769 
L 2278 3500 
L 2956 3500 
L 3675 769 
L 4391 3500 
L 4966 3500 
L 4050 0 
L 3372 0 
L 2619 2869 
L 1863 0 
L 1184 0 
L 269 3500 
z
" transform="scale(0.015625)"/>
      <path id="DejaVuSans-73" d="M 2834 3397 
L 2834 2853 
Q 2591 2978 2328 3040 
Q 2066 3103 1784 3103 
Q 1356 3103 1142 2972 
Q 928 2841 928 2578 
Q 928 2378 1081 2264 
Q 1234 2150 1697 2047 
L 1894 2003 
Q 2506 1872 2764 1633 
Q 3022 1394 3022 966 
Q 3022 478 2636 193 
Q 2250 -91 1575 -91 
Q 1294 -91 989 -36 
Q 684 19 347 128 
L 347 722 
Q 666 556 975 473 
Q 1284 391 1588 391 
Q 1994 391 2212 530 
Q 2431 669 2431 922 
Q 2431 1156 2273 1281 
Q 2116 1406 1581 1522 
L 1381 1569 
Q 847 1681 609 1914 
Q 372 2147 372 2553 
Q 372 3047 722 3315 
Q 1072 3584 1716 3584 
Q 2034 3584 2315 3537 
Q 2597 3491 2834 3397 
z
" transform="scale(0.015625)"/>
      <path id="DejaVuSans-6d" d="M 3328 2828 
Q 3544 3216 3844 3400 
Q 4144 3584 4550 3584 
Q 5097 3584 5394 3201 
Q 5691 2819 5691 2113 
L 5691 0 
L 5113 0 
L 5113 2094 
Q 5113 2597 4934 2840 
Q 4756 3084 4391 3084 
Q 3944 3084 3684 2787 
Q 3425 2491 3425 1978 
L 3425 0 
L 2847 0 
L 2847 2094 
Q 2847 2600 2669 2842 
Q 2491 3084 2119 3084 
Q 1678 3084 1418 2786 
Q 1159 2488 1159 1978 
L 1159 0 
L 581 0 
L 581 3500 
L 1159 3500 
L 1159 2956 
Q 1356 3278 1631 3431 
Q 1906 3584 2284 3584 
Q 2666 3584 2933 3390 
Q 3200 3197 3328 2828 
z
" transform="scale(0.015625)"/>
     </defs>
     <use xlink:href="#DejaVuSans-45"/>
     <use xlink:href="#DejaVuSans-78" transform="translate(63.183594 0)"/>
     <use xlink:href="#DejaVuSans-70" transform="translate(122.363281 0)"/>
     <use xlink:href="#DejaVuSans-6c" transform="translate(185.839844 0)"/>
     <use xlink:href="#DejaVuSans-6f" transform="translate(213.623047 0)"/>
     <use xlink:href="#DejaVuSans-72" transform="translate(274.804688 0)"/>
     <use xlink:href="#DejaVuSans-61" transform="translate(315.917969 0)"/>
     <use xlink:href="#DejaVuSans-74" transform="translate(377.197266 0)"/>
     <use xlink:href="#DejaVuSans-6f" transform="translate(416.40625 0)"/>
     <use xlink:href="#DejaVuSans-72" transform="translate(477.587891 0)"/>
     <use xlink:href="#DejaVuSans-79" transform="translate(518.701172 0)"/>
     <use xlink:href="#DejaVuSans-20" transform="translate(577.880859 0)"/>
     <use xlink:href="#DejaVuSans-6f" transform="translate(609.667969 0)"/>
     <use xlink:href="#DejaVuSans-6e" transform="translate(670.849609 0)"/>
     <use xlink:href="#DejaVuSans-6c" transform="translate(734.228516 0)"/>
     <use xlink:href="#DejaVuSans-79" transform="translate(762.011719 0)"/>
     <use xlink:href="#DejaVuSans-20" transform="translate(821.191406 0)"/>
     <use xlink:href="#DejaVuSans-2d" transform="translate(852.978516 0)"/>
     <use xlink:href="#DejaVuSans-20" transform="translate(889.0625 0)"/>
     <use xlink:href="#DejaVuSans-6c" transform="translate(920.849609 0)"/>
     <use xlink:href="#DejaVuSans-6f" transform="translate(948.632812 0)"/>
     <use xlink:href="#DejaVuSans-63" transform="translate(1009.814453 0)"/>
     <use xlink:href="#DejaVuSans-61" transform="translate(1064.794922 0)"/>
     <use xlink:href="#DejaVuSans-6c" transform="translate(1126.074219 0)"/>
     <use xlink:href="#DejaVuSans-20" transform="translate(1153.857422 0)"/>
     <use xlink:href="#DejaVuSans-6e" transform="translate(1185.644531 0)"/>
     <use xlink:href="#DejaVuSans-65" transform="translate(1249.023438 0)"/>
     <use xlink:href="#DejaVuSans-69" transform="translate(1310.546875 0)"/>
     <use xlink:href="#DejaVuSans-67" transform="translate(1338.330078 0)"/>
     <use xlink:href="#DejaVuSans-68" transform="translate(1401.806641 0)"/>
     <use xlink:href="#DejaVuSans-62" transform="translate(1465.185547 0)"/>
     <use xlink:href="#DejaVuSans-6f" transform="translate(1528.662109 0)"/>
     <use xlink:href="#DejaVuSans-72" transform="translate(1589.84375 0)"/>
     <use xlink:href="#DejaVuSans-68" transform="translate(1629.207031 0)"/>
     <use xlink:href="#DejaVuSans-6f" transform="translate(1692.585938 0)"/>
     <use xlink:href="#DejaVuSans-6f" transform="translate(1753.767578 0)"/>
     <use xlink:href="#DejaVuSans-64" transform="translate(1814.949219 0)"/>
     <use xlink:href="#DejaVuSans-20" transform="translate(1878.425781 0)"/>
     <use xlink:href="#DejaVuSans-76" transform="translate(1910.212891 0)"/>
     <use xlink:href="#DejaVuSans-69" transform="translate(1969.392578 0)"/>
     <use xlink:href="#DejaVuSans-65" transform="translate(1997.175781 0)"/>
     <use xlink:href="#DejaVuSans-77" transform="translate(2058.699219 0)"/>
     <use xlink:href="#DejaVuSans-20" transform="translate(2140.486328 0)"/>
     <use xlink:href="#DejaVuSans-6f" transform="translate(2172.273438 0)"/>
     <use xlink:href="#DejaVuSans-6e" transform="translate(2233.455078 0)"/>
     <use xlink:href="#DejaVuSans-20" transform="translate(2296.833984 0)"/>
     <use xlink:href="#DejaVuSans-61" transform="translate(2328.621094 0)"/>
     <use xlink:href="#DejaVuSans-20" transform="translate(2389.900391 0)"/>
     <use xlink:href="#DejaVuSans-76" transform="translate(2421.6875 0)"/>
     <use xlink:href="#DejaVuSans-65" transform="translate(2480.867188 0)"/>
     <use xlink:href="#DejaVuSans-72" transform="translate(2542.390625 0)"/>
     <use xlink:href="#DejaVuSans-79" transform="translate(2583.503906 0)"/>
     <use xlink:href="#DejaVuSans-20" transform="translate(2642.683594 0)"/>
     <use xlink:href="#DejaVuSans-73" transform="translate(2674.470703 0)"/>
     <use xlink:href="#DejaVuSans-6d" transform="translate(2726.570312 0)"/>
     <use xlink:href="#DejaVuSans-61" transform="translate(2823.982422 0)"/>
     <use xlink:href="#DejaVuSans-6c" transform="translate(2885.261719 0)"/>
     <use xlink:href="#DejaVuSans-6c" transform="translate(2913.044922 0)"/>
     <use xlink:href="#DejaVuSans-20" transform="translate(2940.828125 0)"/>
     <use xlink:href="#DejaVuSans-63" transform="translate(2972.615234 0)"/>
     <use xlink:href="#DejaVuSans-6f" transform="translate(3027.595703 0)"/>
     <use xlink:href="#DejaVuSans-68" transform="translate(3088.777344 0)"/>
     <use xlink:href="#DejaVuSans-6f" transform="translate(3152.15625 0)"/>
     <use xlink:href="#DejaVuSans-72" transform="translate(3213.337891 0)"/>
     <use xlink:href="#DejaVuSans-74" transform="translate(3254.451172 0)"/>
    </g>
   </g>
   <g id="text_19">
    <!-- Pet Only Latent Space (t-SNE) -->
    <g style="fill: #262626" transform="translate(89.761287 20.117344) scale(0.17 -0.17)">
     <defs>
      <path id="DejaVuSans-Bold-50" d="M 588 4666 
L 2584 4666 
Q 3475 4666 3951 4270 
Q 4428 3875 4428 3144 
Q 4428 2409 3951 2014 
Q 3475 1619 2584 1619 
L 1791 1619 
L 1791 0 
L 588 0 
L 588 4666 
z
M 1791 3794 
L 1791 2491 
L 2456 2491 
Q 2806 2491 2997 2661 
Q 3188 2831 3188 3144 
Q 3188 3456 2997 3625 
Q 2806 3794 2456 3794 
L 1791 3794 
z
" transform="scale(0.015625)"/>
      <path id="DejaVuSans-Bold-65" d="M 4031 1759 
L 4031 1441 
L 1416 1441 
Q 1456 1047 1700 850 
Q 1944 653 2381 653 
Q 2734 653 3104 758 
Q 3475 863 3866 1075 
L 3866 213 
Q 3469 63 3072 -14 
Q 2675 -91 2278 -91 
Q 1328 -91 801 392 
Q 275 875 275 1747 
Q 275 2603 792 3093 
Q 1309 3584 2216 3584 
Q 3041 3584 3536 3087 
Q 4031 2591 4031 1759 
z
M 2881 2131 
Q 2881 2450 2695 2645 
Q 2509 2841 2209 2841 
Q 1884 2841 1681 2658 
Q 1478 2475 1428 2131 
L 2881 2131 
z
" transform="scale(0.015625)"/>
      <path id="DejaVuSans-Bold-74" d="M 1759 4494 
L 1759 3500 
L 2913 3500 
L 2913 2700 
L 1759 2700 
L 1759 1216 
Q 1759 972 1856 886 
Q 1953 800 2241 800 
L 2816 800 
L 2816 0 
L 1856 0 
Q 1194 0 917 276 
Q 641 553 641 1216 
L 641 2700 
L 84 2700 
L 84 3500 
L 641 3500 
L 641 4494 
L 1759 4494 
z
" transform="scale(0.015625)"/>
      <path id="DejaVuSans-Bold-20" transform="scale(0.015625)"/>
      <path id="DejaVuSans-Bold-4f" d="M 2719 3878 
Q 2169 3878 1866 3472 
Q 1563 3066 1563 2328 
Q 1563 1594 1866 1187 
Q 2169 781 2719 781 
Q 3272 781 3575 1187 
Q 3878 1594 3878 2328 
Q 3878 3066 3575 3472 
Q 3272 3878 2719 3878 
z
M 2719 4750 
Q 3844 4750 4481 4106 
Q 5119 3463 5119 2328 
Q 5119 1197 4481 553 
Q 3844 -91 2719 -91 
Q 1597 -91 958 553 
Q 319 1197 319 2328 
Q 319 3463 958 4106 
Q 1597 4750 2719 4750 
z
" transform="scale(0.015625)"/>
      <path id="DejaVuSans-Bold-6e" d="M 4056 2131 
L 4056 0 
L 2931 0 
L 2931 347 
L 2931 1631 
Q 2931 2084 2911 2256 
Q 2891 2428 2841 2509 
Q 2775 2619 2662 2680 
Q 2550 2741 2406 2741 
Q 2056 2741 1856 2470 
Q 1656 2200 1656 1722 
L 1656 0 
L 538 0 
L 538 3500 
L 1656 3500 
L 1656 2988 
Q 1909 3294 2193 3439 
Q 2478 3584 2822 3584 
Q 3428 3584 3742 3212 
Q 4056 2841 4056 2131 
z
" transform="scale(0.015625)"/>
      <path id="DejaVuSans-Bold-6c" d="M 538 4863 
L 1656 4863 
L 1656 0 
L 538 0 
L 538 4863 
z
" transform="scale(0.015625)"/>
      <path id="DejaVuSans-Bold-79" d="M 78 3500 
L 1197 3500 
L 2138 1125 
L 2938 3500 
L 4056 3500 
L 2584 -331 
Q 2363 -916 2067 -1148 
Q 1772 -1381 1288 -1381 
L 641 -1381 
L 641 -647 
L 991 -647 
Q 1275 -647 1404 -556 
Q 1534 -466 1606 -231 
L 1638 -134 
L 78 3500 
z
" transform="scale(0.015625)"/>
      <path id="DejaVuSans-Bold-4c" d="M 588 4666 
L 1791 4666 
L 1791 909 
L 3903 909 
L 3903 0 
L 588 0 
L 588 4666 
z
" transform="scale(0.015625)"/>
      <path id="DejaVuSans-Bold-61" d="M 2106 1575 
Q 1756 1575 1579 1456 
Q 1403 1338 1403 1106 
Q 1403 894 1545 773 
Q 1688 653 1941 653 
Q 2256 653 2472 879 
Q 2688 1106 2688 1447 
L 2688 1575 
L 2106 1575 
z
M 3816 1997 
L 3816 0 
L 2688 0 
L 2688 519 
Q 2463 200 2181 54 
Q 1900 -91 1497 -91 
Q 953 -91 614 226 
Q 275 544 275 1050 
Q 275 1666 698 1953 
Q 1122 2241 2028 2241 
L 2688 2241 
L 2688 2328 
Q 2688 2594 2478 2717 
Q 2269 2841 1825 2841 
Q 1466 2841 1156 2769 
Q 847 2697 581 2553 
L 581 3406 
Q 941 3494 1303 3539 
Q 1666 3584 2028 3584 
Q 2975 3584 3395 3211 
Q 3816 2838 3816 1997 
z
" transform="scale(0.015625)"/>
      <path id="DejaVuSans-Bold-53" d="M 3834 4519 
L 3834 3531 
Q 3450 3703 3084 3790 
Q 2719 3878 2394 3878 
Q 1963 3878 1756 3759 
Q 1550 3641 1550 3391 
Q 1550 3203 1689 3098 
Q 1828 2994 2194 2919 
L 2706 2816 
Q 3484 2659 3812 2340 
Q 4141 2022 4141 1434 
Q 4141 663 3683 286 
Q 3225 -91 2284 -91 
Q 1841 -91 1394 -6 
Q 947 78 500 244 
L 500 1259 
Q 947 1022 1364 901 
Q 1781 781 2169 781 
Q 2563 781 2772 912 
Q 2981 1044 2981 1288 
Q 2981 1506 2839 1625 
Q 2697 1744 2272 1838 
L 1806 1941 
Q 1106 2091 782 2419 
Q 459 2747 459 3303 
Q 459 4000 909 4375 
Q 1359 4750 2203 4750 
Q 2588 4750 2994 4692 
Q 3400 4634 3834 4519 
z
" transform="scale(0.015625)"/>
      <path id="DejaVuSans-Bold-70" d="M 1656 506 
L 1656 -1331 
L 538 -1331 
L 538 3500 
L 1656 3500 
L 1656 2988 
Q 1888 3294 2169 3439 
Q 2450 3584 2816 3584 
Q 3463 3584 3878 3070 
Q 4294 2556 4294 1747 
Q 4294 938 3878 423 
Q 3463 -91 2816 -91 
Q 2450 -91 2169 54 
Q 1888 200 1656 506 
z
M 2400 2772 
Q 2041 2772 1848 2508 
Q 1656 2244 1656 1747 
Q 1656 1250 1848 986 
Q 2041 722 2400 722 
Q 2759 722 2948 984 
Q 3138 1247 3138 1747 
Q 3138 2247 2948 2509 
Q 2759 2772 2400 2772 
z
" transform="scale(0.015625)"/>
      <path id="DejaVuSans-Bold-63" d="M 3366 3391 
L 3366 2478 
Q 3138 2634 2908 2709 
Q 2678 2784 2431 2784 
Q 1963 2784 1702 2511 
Q 1441 2238 1441 1747 
Q 1441 1256 1702 982 
Q 1963 709 2431 709 
Q 2694 709 2930 787 
Q 3166 866 3366 1019 
L 3366 103 
Q 3103 6 2833 -42 
Q 2563 -91 2291 -91 
Q 1344 -91 809 395 
Q 275 881 275 1747 
Q 275 2613 809 3098 
Q 1344 3584 2291 3584 
Q 2566 3584 2833 3536 
Q 3100 3488 3366 3391 
z
" transform="scale(0.015625)"/>
      <path id="DejaVuSans-Bold-28" d="M 2413 -844 
L 1484 -844 
Q 1006 -72 778 623 
Q 550 1319 550 2003 
Q 550 2688 779 3389 
Q 1009 4091 1484 4856 
L 2413 4856 
Q 2013 4116 1813 3408 
Q 1613 2700 1613 2009 
Q 1613 1319 1811 609 
Q 2009 -100 2413 -844 
z
" transform="scale(0.015625)"/>
      <path id="DejaVuSans-Bold-2d" d="M 347 2297 
L 2309 2297 
L 2309 1388 
L 347 1388 
L 347 2297 
z
" transform="scale(0.015625)"/>
      <path id="DejaVuSans-Bold-4e" d="M 588 4666 
L 1931 4666 
L 3628 1466 
L 3628 4666 
L 4769 4666 
L 4769 0 
L 3425 0 
L 1728 3200 
L 1728 0 
L 588 0 
L 588 4666 
z
" transform="scale(0.015625)"/>
      <path id="DejaVuSans-Bold-45" d="M 588 4666 
L 3834 4666 
L 3834 3756 
L 1791 3756 
L 1791 2888 
L 3713 2888 
L 3713 1978 
L 1791 1978 
L 1791 909 
L 3903 909 
L 3903 0 
L 588 0 
L 588 4666 
z
" transform="scale(0.015625)"/>
      <path id="DejaVuSans-Bold-29" d="M 513 -844 
Q 913 -100 1113 609 
Q 1313 1319 1313 2009 
Q 1313 2700 1113 3408 
Q 913 4116 513 4856 
L 1441 4856 
Q 1916 4091 2145 3389 
Q 2375 2688 2375 2003 
Q 2375 1319 2147 623 
Q 1919 -72 1441 -844 
L 513 -844 
z
" transform="scale(0.015625)"/>
     </defs>
     <use xlink:href="#DejaVuSans-Bold-50"/>
     <use xlink:href="#DejaVuSans-Bold-65" transform="translate(73.291016 0)"/>
     <use xlink:href="#DejaVuSans-Bold-74" transform="translate(141.113281 0)"/>
     <use xlink:href="#DejaVuSans-Bold-20" transform="translate(188.916016 0)"/>
     <use xlink:href="#DejaVuSans-Bold-4f" transform="translate(223.730469 0)"/>
     <use xlink:href="#DejaVuSans-Bold-6e" transform="translate(308.740234 0)"/>
     <use xlink:href="#DejaVuSans-Bold-6c" transform="translate(379.931641 0)"/>
     <use xlink:href="#DejaVuSans-Bold-79" transform="translate(414.208984 0)"/>
     <use xlink:href="#DejaVuSans-Bold-20" transform="translate(479.394531 0)"/>
     <use xlink:href="#DejaVuSans-Bold-4c" transform="translate(514.208984 0)"/>
     <use xlink:href="#DejaVuSans-Bold-61" transform="translate(577.929688 0)"/>
     <use xlink:href="#DejaVuSans-Bold-74" transform="translate(645.410156 0)"/>
     <use xlink:href="#DejaVuSans-Bold-65" transform="translate(693.212891 0)"/>
     <use xlink:href="#DejaVuSans-Bold-6e" transform="translate(761.035156 0)"/>
     <use xlink:href="#DejaVuSans-Bold-74" transform="translate(832.226562 0)"/>
     <use xlink:href="#DejaVuSans-Bold-20" transform="translate(880.029297 0)"/>
     <use xlink:href="#DejaVuSans-Bold-53" transform="translate(914.84375 0)"/>
     <use xlink:href="#DejaVuSans-Bold-70" transform="translate(986.865234 0)"/>
     <use xlink:href="#DejaVuSans-Bold-61" transform="translate(1058.447266 0)"/>
     <use xlink:href="#DejaVuSans-Bold-63" transform="translate(1125.927734 0)"/>
     <use xlink:href="#DejaVuSans-Bold-65" transform="translate(1185.205078 0)"/>
     <use xlink:href="#DejaVuSans-Bold-20" transform="translate(1253.027344 0)"/>
     <use xlink:href="#DejaVuSans-Bold-28" transform="translate(1287.841797 0)"/>
     <use xlink:href="#DejaVuSans-Bold-74" transform="translate(1333.544922 0)"/>
     <use xlink:href="#DejaVuSans-Bold-2d" transform="translate(1381.347656 0)"/>
     <use xlink:href="#DejaVuSans-Bold-53" transform="translate(1422.851562 0)"/>
     <use xlink:href="#DejaVuSans-Bold-4e" transform="translate(1494.873047 0)"/>
     <use xlink:href="#DejaVuSans-Bold-45" transform="translate(1578.564453 0)"/>
     <use xlink:href="#DejaVuSans-Bold-29" transform="translate(1646.875 0)"/>
    </g>
   </g>
   <g id="PathCollection_1">
    <defs>
     <path id="m3d578eefb1" d="M 0 5.700877 
C 1.51189 5.700877 2.962061 5.100197 4.031129 4.031129 
C 5.100197 2.962061 5.700877 1.51189 5.700877 0 
C 5.700877 -1.51189 5.100197 -2.962061 4.031129 -4.031129 
C 2.962061 -5.100197 1.51189 -5.700877 0 -5.700877 
C -1.51189 -5.700877 -2.962061 -5.100197 -4.031129 -4.031129 
C -5.100197 -2.962061 -5.700877 -1.51189 -5.700877 0 
C -5.700877 1.51189 -5.100197 2.962061 -4.031129 4.031129 
C -2.962061 5.100197 -1.51189 5.700877 0 5.700877 
z
" style="stroke: #ffffff; stroke-opacity: 0.92"/>
    </defs>
    <g clip-path="url(#p83401989b4)">
     <use xlink:href="#m3d578eefb1" x="199.055221" y="348.230613" style="fill: #2563eb; fill-opacity: 0.92; stroke: #ffffff; stroke-opacity: 0.92"/>
     <use xlink:href="#m3d578eefb1" x="218.355254" y="358.39517" style="fill: #2563eb; fill-opacity: 0.92; stroke: #ffffff; stroke-opacity: 0.92"/>
     <use xlink:href="#m3d578eefb1" x="205.931497" y="383.95335" style="fill: #2563eb; fill-opacity: 0.92; stroke: #ffffff; stroke-opacity: 0.92"/>
     <use xlink:href="#m3d578eefb1" x="358.775001" y="348.514545" style="fill: #2563eb; fill-opacity: 0.92; stroke: #ffffff; stroke-opacity: 0.92"/>
     <use xlink:href="#m3d578eefb1" x="291.704557" y="380.664569" style="fill: #2563eb; fill-opacity: 0.92; stroke: #ffffff; stroke-opacity: 0.92"/>
     <use xlink:href="#m3d578eefb1" x="336.585094" y="369.612393" style="fill: #2563eb; fill-opacity: 0.92; stroke: #ffffff; stroke-opacity: 0.92"/>
     <use xlink:href="#m3d578eefb1" x="309.069589" y="409.18015" style="fill: #2563eb; fill-opacity: 0.92; stroke: #ffffff; stroke-opacity: 0.92"/>
     <use xlink:href="#m3d578eefb1" x="298.466345" y="340.390168" style="fill: #2563eb; fill-opacity: 0.92; stroke: #ffffff; stroke-opacity: 0.92"/>
     <use xlink:href="#m3d578eefb1" x="320.075121" y="335.954052" style="fill: #2563eb; fill-opacity: 0.92; stroke: #ffffff; stroke-opacity: 0.92"/>
     <use xlink:href="#m3d578eefb1" x="312.731693" y="372.652063" style="fill: #2563eb; fill-opacity: 0.92; stroke: #ffffff; stroke-opacity: 0.92"/>
     <use xlink:href="#m3d578eefb1" x="82.041455" y="377.001657" style="fill: #2563eb; fill-opacity: 0.92; stroke: #ffffff; stroke-opacity: 0.92"/>
     <use xlink:href="#m3d578eefb1" x="102.07276" y="394.97341" style="fill: #2563eb; fill-opacity: 0.92; stroke: #ffffff; stroke-opacity: 0.92"/>
     <use xlink:href="#m3d578eefb1" x="64.34668" y="399.473668" style="fill: #2563eb; fill-opacity: 0.92; stroke: #ffffff; stroke-opacity: 0.92"/>
     <use xlink:href="#m3d578eefb1" x="96.077057" y="356.887213" style="fill: #2563eb; fill-opacity: 0.92; stroke: #ffffff; stroke-opacity: 0.92"/>
    </g>
   </g>
   <g id="PathCollection_2">
    <defs>
     <path id="m3f4dea8635" d="M 0 5.700877 
C 1.51189 5.700877 2.962061 5.100197 4.031129 4.031129 
C 5.100197 2.962061 5.700877 1.51189 5.700877 0 
C 5.700877 -1.51189 5.100197 -2.962061 4.031129 -4.031129 
C 2.962061 -5.100197 1.51189 -5.700877 0 -5.700877 
C -1.51189 -5.700877 -2.962061 -5.100197 -4.031129 -4.031129 
C -5.100197 -2.962061 -5.700877 -1.51189 -5.700877 0 
C -5.700877 1.51189 -5.100197 2.962061 -4.031129 4.031129 
C -2.962061 5.100197 -1.51189 5.700877 0 5.700877 
z
" style="stroke: #ffffff; stroke-opacity: 0.92"/>
    </defs>
    <g clip-path="url(#p83401989b4)">
     <use xlink:href="#m3f4dea8635" x="335.642479" y="157.410988" style="fill: #d97706; fill-opacity: 0.92; stroke: #ffffff; stroke-opacity: 0.92"/>
     <use xlink:href="#m3f4dea8635" x="321.384913" y="129.227631" style="fill: #d97706; fill-opacity: 0.92; stroke: #ffffff; stroke-opacity: 0.92"/>
     <use xlink:href="#m3f4dea8635" x="339.91248" y="126.62059" style="fill: #d97706; fill-opacity: 0.92; stroke: #ffffff; stroke-opacity: 0.92"/>
     <use xlink:href="#m3f4dea8635" x="180.727765" y="367.378784" style="fill: #d97706; fill-opacity: 0.92; stroke: #ffffff; stroke-opacity: 0.92"/>
     <use xlink:href="#m3f4dea8635" x="78.83567" y="424.736226" style="fill: #d97706; fill-opacity: 0.92; stroke: #ffffff; stroke-opacity: 0.92"/>
    </g>
   </g>
   <g id="PathCollection_3">
    <defs>
     <path id="ma5de8c9e62" d="M 0 5.700877 
C 1.51189 5.700877 2.962061 5.100197 4.031129 4.031129 
C 5.100197 2.962061 5.700877 1.51189 5.700877 0 
C 5.700877 -1.51189 5.100197 -2.962061 4.031129 -4.031129 
C 2.962061 -5.100197 1.51189 -5.700877 0 -5.700877 
C -1.51189 -5.700877 -2.962061 -5.100197 -4.031129 -4.031129 
C -5.100197 -2.962061 -5.700877 -1.51189 -5.700877 0 
C -5.700877 1.51189 -5.100197 2.962061 -4.031129 4.031129 
C -2.962061 5.100197 -1.51189 5.700877 0 5.700877 
z
" style="stroke: #ffffff; stroke-opacity: 0.92"/>
    </defs>
    <g clip-path="url(#p83401989b4)">
     <use xlink:href="#ma5de8c9e62" x="366.025606" y="306.946995" style="fill: #dc2626; fill-opacity: 0.92; stroke: #ffffff; stroke-opacity: 0.92"/>
    </g>
   </g>
   <g id="legend_1">
    <g id="text_20">
     <!-- Clinical Label -->
     <g style="fill: #262626" transform="translate(436.288189 55.475625) scale(0.11 -0.11)">
      <defs>
       <path id="DejaVuSans-43" d="M 4122 4306 
L 4122 3641 
Q 3803 3938 3442 4084 
Q 3081 4231 2675 4231 
Q 1875 4231 1450 3742 
Q 1025 3253 1025 2328 
Q 1025 1406 1450 917 
Q 1875 428 2675 428 
Q 3081 428 3442 575 
Q 3803 722 4122 1019 
L 4122 359 
Q 3791 134 3420 21 
Q 3050 -91 2638 -91 
Q 1578 -91 968 557 
Q 359 1206 359 2328 
Q 359 3453 968 4101 
Q 1578 4750 2638 4750 
Q 3056 4750 3426 4639 
Q 3797 4528 4122 4306 
z
" transform="scale(0.015625)"/>
       <path id="DejaVuSans-4c" d="M 628 4666 
L 1259 4666 
L 1259 531 
L 3531 531 
L 3531 0 
L 628 0 
L 628 4666 
z
" transform="scale(0.015625)"/>
      </defs>
      <use xlink:href="#DejaVuSans-43"/>
      <use xlink:href="#DejaVuSans-6c" transform="translate(69.824219 0)"/>
      <use xlink:href="#DejaVuSans-69" transform="translate(97.607422 0)"/>
      <use xlink:href="#DejaVuSans-6e" transform="translate(125.390625 0)"/>
      <use xlink:href="#DejaVuSans-69" transform="translate(188.769531 0)"/>
      <use xlink:href="#DejaVuSans-63" transform="translate(216.552734 0)"/>
      <use xlink:href="#DejaVuSans-61" transform="translate(271.533203 0)"/>
      <use xlink:href="#DejaVuSans-6c" transform="translate(332.8125 0)"/>
      <use xlink:href="#DejaVuSans-20" transform="translate(360.595703 0)"/>
      <use xlink:href="#DejaVuSans-4c" transform="translate(392.382812 0)"/>
      <use xlink:href="#DejaVuSans-61" transform="translate(448.095703 0)"/>
      <use xlink:href="#DejaVuSans-62" transform="translate(509.375 0)"/>
      <use xlink:href="#DejaVuSans-65" transform="translate(572.851562 0)"/>
      <use xlink:href="#DejaVuSans-6c" transform="translate(634.375 0)"/>
     </g>
    </g>
    <g id="PathCollection_4">
     <g>
      <use xlink:href="#m3d578eefb1" x="450.636548" y="67.736719" style="fill: #2563eb; fill-opacity: 0.92; stroke: #ffffff; stroke-opacity: 0.92"/>
     </g>
    </g>
    <g id="text_21">
     <!-- Control -->
     <g style="fill: #262626" transform="translate(468.636548 70.361719) scale(0.1 -0.1)">
      <use xlink:href="#DejaVuSans-43"/>
      <use xlink:href="#DejaVuSans-6f" transform="translate(69.824219 0)"/>
      <use xlink:href="#DejaVuSans-6e" transform="translate(131.005859 0)"/>
      <use xlink:href="#DejaVuSans-74" transform="translate(194.384766 0)"/>
      <use xlink:href="#DejaVuSans-72" transform="translate(233.59375 0)"/>
      <use xlink:href="#DejaVuSans-6f" transform="translate(272.457031 0)"/>
      <use xlink:href="#DejaVuSans-6c" transform="translate(333.638672 0)"/>
     </g>
    </g>
    <g id="PathCollection_5">
     <g>
      <use xlink:href="#m3f4dea8635" x="450.636548" y="82.414844" style="fill: #d97706; fill-opacity: 0.92; stroke: #ffffff; stroke-opacity: 0.92"/>
     </g>
    </g>
    <g id="text_22">
     <!-- MCI -->
     <g style="fill: #262626" transform="translate(468.636548 85.039844) scale(0.1 -0.1)">
      <defs>
       <path id="DejaVuSans-4d" d="M 628 4666 
L 1569 4666 
L 2759 1491 
L 3956 4666 
L 4897 4666 
L 4897 0 
L 4281 0 
L 4281 4097 
L 3078 897 
L 2444 897 
L 1241 4097 
L 1241 0 
L 628 0 
L 628 4666 
z
" transform="scale(0.015625)"/>
       <path id="DejaVuSans-49" d="M 628 4666 
L 1259 4666 
L 1259 0 
L 628 0 
L 628 4666 
z
" transform="scale(0.015625)"/>
      </defs>
      <use xlink:href="#DejaVuSans-4d"/>
      <use xlink:href="#DejaVuSans-43" transform="translate(86.279297 0)"/>
      <use xlink:href="#DejaVuSans-49" transform="translate(156.103516 0)"/>
     </g>
    </g>
    <g id="PathCollection_6">
     <g>
      <use xlink:href="#ma5de8c9e62" x="450.636548" y="97.092969" style="fill: #dc2626; fill-opacity: 0.92; stroke: #ffffff; stroke-opacity: 0.92"/>
     </g>
    </g>
    <g id="text_23">
     <!-- AD -->
     <g style="fill: #262626" transform="translate(468.636548 99.717969) scale(0.1 -0.1)">
      <defs>
       <path id="DejaVuSans-41" d="M 2188 4044 
L 1331 1722 
L 3047 1722 
L 2188 4044 
z
M 1831 4666 
L 2547 4666 
L 4325 0 
L 3669 0 
L 3244 1197 
L 1141 1197 
L 716 0 
L 50 0 
L 1831 4666 
z
" transform="scale(0.015625)"/>
       <path id="DejaVuSans-44" d="M 1259 4147 
L 1259 519 
L 2022 519 
Q 2988 519 3436 956 
Q 3884 1394 3884 2338 
Q 3884 3275 3436 3711 
Q 2988 4147 2022 4147 
L 1259 4147 
z
M 628 4666 
L 1925 4666 
Q 3281 4666 3915 4102 
Q 4550 3538 4550 2338 
Q 4550 1131 3912 565 
Q 3275 0 1925 0 
L 628 0 
L 628 4666 
z
" transform="scale(0.015625)"/>
      </defs>
      <use xlink:href="#DejaVuSans-41"/>
      <use xlink:href="#DejaVuSans-44" transform="translate(68.408203 0)"/>
     </g>
    </g>
   </g>
  </g>
 </g>
 <defs>
  <clipPath id="p83401989b4">
   <rect x="47.418438" y="38.117344" width="372.421325" height="405.915"/>
  </clipPath>
 </defs>
</svg>
